<svg id="svg" xmlns="http://www.w3.org/2000/svg" xmlns:xlink="http://www.w3.org/1999/xlink" width="400" height="400" viewBox="0, 0, 400,400" version="1.1"><g id="svgg"><path id="path0" d="M195.700 13.476 C 196.085 13.576,196.715 13.576,197.100 13.476 C 197.485 13.375,197.170 13.293,196.400 13.293 C 195.630 13.293,195.315 13.375,195.700 13.476 M206.900 13.476 C 207.285 13.576,207.915 13.576,208.300 13.476 C 208.685 13.375,208.370 13.293,207.600 13.293 C 206.830 13.293,206.515 13.375,206.900 13.476 M200.100 13.894 C 201.145 13.976,202.855 13.976,203.900 13.894 C 204.945 13.812,204.090 13.744,202.000 13.744 C 199.910 13.744,199.055 13.812,200.100 13.894 M349.200 115.000 C 349.200 115.770,349.270 116.400,349.356 116.400 C 349.442 116.400,349.586 115.770,349.676 115.000 C 349.766 114.230,349.696 113.600,349.520 113.600 C 349.344 113.600,349.200 114.230,349.200 115.000 M350.000 123.200 C 350.000 124.080,350.071 124.800,350.158 124.800 C 350.245 124.800,350.385 124.080,350.469 123.200 C 350.552 122.320,350.481 121.600,350.311 121.600 C 350.140 121.600,350.000 122.320,350.000 123.200 M351.049 132.615 C 350.912 132.973,350.821 133.926,350.847 134.733 C 350.890 136.083,350.920 136.042,351.226 134.213 C 351.568 132.170,351.490 131.467,351.049 132.615 M52.901 136.600 C 52.905 137.480,52.987 137.793,53.083 137.295 C 53.179 136.798,53.175 136.078,53.075 135.695 C 52.975 135.313,52.896 135.720,52.901 136.600 M351.200 141.800 C 351.200 142.350,351.269 142.800,351.353 142.800 C 351.438 142.800,351.593 142.350,351.698 141.800 C 351.803 141.250,351.734 140.800,351.545 140.800 C 351.355 140.800,351.200 141.250,351.200 141.800 M52.524 145.000 C 52.526 146.320,52.601 146.812,52.690 146.093 C 52.779 145.374,52.777 144.294,52.686 143.693 C 52.595 143.092,52.522 143.680,52.524 145.000 M351.759 148.562 C 351.641 148.871,351.607 149.726,351.683 150.462 C 351.806 151.635,351.847 151.566,352.015 149.900 C 352.211 147.952,352.139 147.574,351.759 148.562 M52.173 163.800 C 52.173 169.300,52.230 171.605,52.299 168.923 C 52.368 166.241,52.368 161.741,52.299 158.923 C 52.230 156.105,52.174 158.300,52.173 163.800 M352.558 162.600 C 352.558 165.680,352.621 166.887,352.697 165.282 C 352.773 163.678,352.773 161.158,352.696 159.682 C 352.619 158.207,352.557 159.520,352.558 162.600 M351.350 162.600 C 351.351 165.020,351.416 165.958,351.496 164.685 C 351.576 163.412,351.575 161.432,351.494 160.285 C 351.414 159.138,351.349 160.180,351.350 162.600 M351.640 177.076 C 351.618 177.998,351.780 178.864,352.000 179.000 C 352.466 179.288,352.466 177.856,352.000 176.400 C 351.726 175.546,351.674 175.645,351.640 177.076 M351.119 182.106 C 351.199 183.698,351.416 186.170,351.602 187.600 C 351.850 189.511,351.882 188.875,351.722 185.200 C 351.602 182.450,351.385 179.978,351.239 179.706 C 351.094 179.434,351.040 180.514,351.119 182.106 M52.514 182.600 C 52.517 183.700,52.595 184.103,52.687 183.495 C 52.779 182.886,52.777 181.986,52.682 181.495 C 52.587 181.003,52.511 181.500,52.514 182.600 M350.501 188.200 C 350.505 189.080,350.587 189.393,350.683 188.895 C 350.779 188.398,350.775 187.678,350.675 187.295 C 350.575 186.913,350.496 187.320,350.501 188.200 M329.600 189.238 C 325.345 190.065,324.496 191.255,319.436 203.486 C 307.333 232.744,289.581 254.297,265.400 269.093 C 253.952 276.098,248.695 278.637,235.337 283.614 C 225.103 287.427,222.525 288.677,219.979 291.059 C 217.096 293.755,211.827 301.640,212.199 302.700 C 212.296 302.975,212.201 303.200,211.987 303.200 C 211.774 303.200,211.600 303.374,211.600 303.587 C 211.600 303.801,211.915 303.866,212.300 303.734 C 212.864 303.539,212.845 303.614,212.200 304.118 C 211.437 304.714,211.434 304.756,212.134 305.027 C 212.718 305.253,212.758 305.388,212.334 305.686 C 211.916 305.979,211.909 306.105,212.300 306.264 C 212.575 306.375,212.800 306.744,212.800 307.082 C 212.800 307.574,212.916 307.601,213.379 307.217 C 213.767 306.896,214.182 306.862,214.636 307.116 C 215.009 307.325,215.628 307.413,216.012 307.313 C 216.396 307.212,216.831 307.326,216.979 307.566 C 217.279 308.051,215.349 308.940,214.771 308.582 C 214.309 308.296,214.815 309.658,215.386 310.237 C 215.623 310.478,216.167 310.552,216.594 310.402 C 217.265 310.167,217.210 310.089,216.191 309.834 C 215.175 309.578,215.107 309.484,215.703 309.150 C 216.230 308.855,216.657 309.006,217.493 309.782 L 218.592 310.800 217.396 310.840 C 216.215 310.879,216.213 310.884,217.200 311.213 C 217.891 311.444,217.520 311.496,216.000 311.381 C 214.286 311.251,214.021 311.300,214.800 311.601 C 215.641 311.925,215.531 311.962,214.112 311.833 C 212.455 311.682,212.427 311.700,212.561 312.846 C 212.671 313.796,212.595 313.928,212.148 313.557 C 211.729 313.209,211.596 313.232,211.584 313.651 C 211.557 314.590,210.256 311.857,210.227 310.800 C 210.206 310.027,209.905 309.713,208.900 309.417 C 207.719 309.070,207.040 308.000,208.000 308.000 C 208.220 308.000,208.400 307.634,208.400 307.186 C 208.400 306.530,208.262 306.446,207.690 306.752 C 207.237 306.994,206.725 306.990,206.280 306.741 C 205.132 306.098,201.623 306.310,200.153 307.110 C 199.687 307.364,199.192 307.458,199.053 307.319 C 198.914 307.180,198.800 307.277,198.800 307.533 C 198.800 307.790,198.548 308.000,198.239 308.000 C 197.461 308.000,196.733 310.173,197.316 310.756 C 197.560 311.000,198.023 311.200,198.345 311.200 C 200.721 311.200,206.000 313.801,206.000 314.971 C 206.000 315.263,206.270 315.726,206.600 316.000 C 207.097 316.412,207.201 316.369,207.206 315.749 C 207.217 314.430,207.905 313.686,208.258 314.611 C 208.423 315.045,208.949 315.823,209.427 316.339 L 210.295 317.278 210.715 316.073 C 210.946 315.410,211.029 314.763,210.901 314.634 C 210.772 314.505,211.061 314.400,211.542 314.400 L 212.418 314.400 212.309 357.225 C 212.249 380.778,212.308 399.633,212.439 399.125 L 212.678 398.200 212.884 399.200 C 212.998 399.750,213.116 380.903,213.146 357.318 L 213.200 314.437 215.900 314.297 L 218.600 314.157 215.900 314.078 C 212.159 313.970,212.476 313.217,216.300 313.128 L 219.400 313.056 216.400 312.828 L 213.400 312.600 215.600 312.310 C 216.810 312.150,218.250 312.109,218.800 312.218 C 219.415 312.340,219.569 312.298,219.200 312.108 C 218.444 311.720,218.234 310.802,218.900 310.794 C 219.300 310.789,219.300 310.724,218.900 310.470 C 218.508 310.221,218.528 309.985,218.992 309.376 C 219.505 308.705,219.638 308.681,219.980 309.200 C 220.235 309.588,220.236 309.848,219.985 309.934 C 219.535 310.089,219.874 310.800,220.397 310.800 C 220.590 310.800,220.660 310.318,220.553 309.728 C 220.302 308.344,220.034 307.932,219.572 308.217 C 219.368 308.344,219.200 308.253,219.200 308.017 C 219.200 307.460,226.033 307.905,226.600 308.499 C 226.871 308.782,226.848 308.832,226.529 308.653 C 226.253 308.498,225.944 308.745,225.785 309.247 C 225.571 309.921,225.437 309.987,225.162 309.553 C 224.889 309.121,224.811 309.163,224.806 309.743 C 224.802 310.257,224.995 310.411,225.433 310.243 C 225.781 310.109,226.151 310.000,226.256 310.000 C 226.361 310.000,226.319 309.792,226.162 309.538 C 225.979 309.243,226.053 309.185,226.365 309.379 C 226.634 309.545,226.769 309.903,226.665 310.174 C 226.561 310.445,226.712 310.667,227.000 310.667 C 227.293 310.667,227.438 310.388,227.328 310.033 C 227.212 309.656,227.470 309.781,227.967 310.344 C 228.425 310.864,228.800 311.099,228.800 310.868 C 228.800 310.637,228.617 310.334,228.393 310.196 C 228.170 310.058,228.108 309.749,228.255 309.511 C 228.416 309.250,228.337 309.192,228.059 309.364 C 227.385 309.780,227.023 308.510,227.522 307.478 L 227.946 306.600 227.973 307.500 C 228.006 308.588,228.800 308.720,228.800 307.637 C 228.800 307.072,229.007 306.929,229.600 307.084 C 230.434 307.302,230.678 308.181,230.017 308.589 C 229.807 308.719,229.751 309.135,229.892 309.513 C 230.126 310.136,230.078 310.144,229.375 309.600 C 228.658 309.045,228.641 309.053,229.147 309.698 C 229.448 310.082,229.600 310.757,229.485 311.198 C 229.348 311.720,229.471 312.000,229.837 312.000 C 230.188 312.000,230.400 311.574,230.400 310.867 C 230.400 310.126,230.608 309.733,231.000 309.733 C 231.330 309.733,231.600 309.894,231.600 310.090 C 231.600 310.287,231.750 310.355,231.933 310.241 C 232.117 310.128,232.267 310.297,232.267 310.618 C 232.267 310.938,232.027 311.200,231.733 311.200 C 231.440 311.200,231.200 310.990,231.200 310.733 C 231.200 310.477,231.084 310.382,230.943 310.524 C 230.802 310.665,230.890 311.027,231.140 311.327 C 231.389 311.628,231.475 311.992,231.330 312.137 C 231.185 312.282,231.772 312.379,232.633 312.353 C 234.161 312.307,234.170 312.298,233.000 312.000 C 231.923 311.726,231.979 311.650,233.400 311.452 C 233.620 311.421,234.205 311.166,234.700 310.884 C 235.465 310.449,235.600 310.464,235.600 310.986 C 235.600 311.324,235.881 311.600,236.224 311.600 C 236.567 311.600,236.736 311.420,236.600 311.200 C 236.464 310.980,236.549 310.800,236.789 310.800 C 237.029 310.800,237.329 311.070,237.455 311.400 C 237.582 311.730,238.071 311.987,238.543 311.972 C 239.349 311.945,239.354 311.926,238.627 311.641 C 238.201 311.474,238.023 311.233,238.232 311.104 C 238.440 310.975,239.058 311.118,239.605 311.421 C 240.249 311.778,240.389 311.993,240.000 312.033 C 239.181 312.117,241.555 312.701,242.800 312.722 C 243.702 312.737,243.676 312.693,242.529 312.270 C 241.108 311.745,240.409 311.200,241.157 311.200 C 241.427 311.200,241.548 311.039,241.426 310.842 C 241.304 310.645,241.453 310.388,241.757 310.272 C 242.130 310.129,242.250 310.286,242.127 310.756 C 241.977 311.332,242.390 311.534,244.519 311.926 C 247.978 312.563,248.479 312.510,246.727 311.690 C 245.478 311.105,245.341 310.921,245.827 310.484 C 246.300 310.059,246.400 310.076,246.400 310.584 C 246.400 310.958,246.754 311.198,247.300 311.194 C 248.028 311.189,248.085 311.114,247.600 310.800 C 247.094 310.473,247.117 310.411,247.743 310.406 C 248.196 310.402,248.406 310.192,248.281 309.867 C 248.168 309.573,248.329 309.333,248.638 309.333 C 249.254 309.333,249.369 309.698,248.900 310.167 C 247.999 311.068,249.055 311.887,251.200 311.950 C 252.025 311.974,251.921 311.854,250.612 311.266 C 249.369 310.708,249.174 310.496,249.712 310.289 C 250.091 310.144,250.400 310.175,250.400 310.357 C 250.400 310.540,251.420 310.894,252.667 311.145 C 255.612 311.736,256.100 311.699,254.504 311.006 C 253.502 310.570,253.273 310.279,253.493 309.721 C 253.733 309.111,253.796 309.097,253.905 309.635 C 253.985 310.032,254.790 310.445,256.047 310.735 C 258.707 311.349,259.243 311.300,257.888 310.565 C 256.970 310.067,256.690 309.200,257.447 309.200 C 257.557 309.200,257.554 309.351,257.440 309.535 C 257.326 309.719,258.139 310.079,259.247 310.335 C 262.038 310.979,262.433 310.894,260.800 310.000 C 259.096 309.067,259.203 309.049,262.000 309.800 C 264.798 310.551,265.712 310.537,264.288 309.765 C 263.370 309.267,263.090 308.400,263.847 308.400 C 263.957 308.400,263.950 308.558,263.830 308.751 C 263.711 308.945,264.129 309.206,264.760 309.332 C 265.391 309.458,266.423 309.669,267.053 309.801 L 268.200 310.042 267.088 309.402 C 266.477 309.050,266.094 308.571,266.238 308.338 C 266.409 308.062,266.587 308.053,266.750 308.313 C 266.990 308.694,269.769 309.610,270.600 309.582 C 270.820 309.574,270.500 309.297,269.888 308.965 C 269.277 308.633,268.894 308.171,269.038 307.938 C 269.197 307.682,269.399 307.663,269.550 307.892 C 269.815 308.291,272.216 309.206,272.960 309.191 C 273.202 309.186,272.950 308.833,272.400 308.407 L 271.400 307.632 272.363 307.879 C 273.004 308.044,273.235 307.981,273.056 307.691 C 272.908 307.451,272.960 307.148,273.173 307.017 C 273.387 306.884,273.489 307.138,273.402 307.589 C 273.316 308.036,273.460 308.402,273.723 308.405 C 273.985 308.408,274.650 308.509,275.200 308.628 C 276.176 308.841,276.173 308.831,275.088 308.204 C 274.142 307.658,273.899 306.800,274.690 306.800 C 274.824 306.800,274.807 306.926,274.652 307.081 C 274.498 307.236,275.143 307.593,276.086 307.875 C 278.336 308.548,278.861 308.510,277.500 307.771 C 276.179 307.055,276.087 306.793,277.263 307.100 C 277.761 307.231,278.025 307.165,277.889 306.944 C 277.759 306.734,277.825 306.300,278.035 305.981 C 278.314 305.557,278.370 305.687,278.242 306.462 C 278.105 307.293,278.255 307.575,278.933 307.757 C 280.398 308.149,280.526 308.032,279.544 307.199 C 278.783 306.554,278.749 306.451,279.366 306.667 C 279.872 306.845,280.039 306.787,279.859 306.496 C 279.709 306.253,279.798 305.925,280.055 305.766 C 280.335 305.593,280.417 305.649,280.258 305.906 C 279.930 306.438,281.037 307.600,281.873 307.600 C 282.318 307.600,282.227 307.378,281.544 306.799 C 280.783 306.154,280.749 306.051,281.366 306.267 C 281.937 306.468,282.048 306.402,281.804 306.006 C 281.584 305.651,281.631 305.572,281.945 305.766 C 282.202 305.925,282.322 306.202,282.211 306.382 C 282.100 306.562,282.412 306.817,282.904 306.949 C 284.396 307.349,284.655 307.205,283.600 306.563 L 282.600 305.954 283.663 306.175 C 284.247 306.297,285.057 306.517,285.463 306.665 C 286.011 306.864,285.959 306.732,285.259 306.149 C 284.352 305.395,284.345 305.345,285.059 304.783 C 285.724 304.260,285.749 304.265,285.303 304.837 C 284.885 305.373,284.968 305.548,285.822 305.937 C 287.257 306.591,288.001 306.487,286.800 305.800 C 286.250 305.486,286.036 305.222,286.324 305.214 C 286.616 305.206,286.721 304.996,286.562 304.738 C 286.385 304.452,286.452 304.385,286.738 304.562 C 286.992 304.719,287.200 304.657,287.200 304.424 C 287.200 304.191,287.391 304.000,287.624 304.000 C 287.857 304.000,287.952 304.154,287.836 304.342 C 287.720 304.529,288.078 304.889,288.631 305.142 C 290.062 305.794,290.226 305.711,289.179 304.864 C 288.479 304.297,288.391 304.053,288.797 303.802 C 289.119 303.603,289.227 303.633,289.074 303.880 C 288.937 304.102,289.278 304.489,289.831 304.742 C 291.321 305.420,291.527 305.285,290.400 304.367 L 289.400 303.552 290.680 304.176 C 292.430 305.029,292.799 304.945,291.600 303.967 L 290.600 303.152 291.880 303.776 C 293.578 304.603,293.892 304.564,292.779 303.664 C 292.079 303.097,291.991 302.853,292.397 302.602 C 292.719 302.403,292.827 302.433,292.674 302.680 C 292.537 302.902,292.878 303.289,293.431 303.542 C 294.627 304.086,295.237 304.138,294.428 303.626 C 294.114 303.427,293.812 302.960,293.757 302.588 C 293.675 302.030,293.796 302.059,294.444 302.756 C 295.374 303.753,295.944 303.898,295.149 302.935 C 294.653 302.333,294.684 302.314,295.474 302.735 C 296.740 303.409,297.129 303.306,296.082 302.573 C 294.758 301.645,295.407 301.108,297.031 301.787 C 298.869 302.555,299.937 302.201,298.729 301.223 C 298.064 300.684,297.989 300.454,298.397 300.202 C 298.771 299.971,298.828 300.030,298.596 300.406 C 298.356 300.795,298.453 300.865,298.963 300.669 C 299.345 300.523,300.002 300.587,300.423 300.812 C 301.514 301.396,304.673 299.811,304.010 299.012 C 303.676 298.610,303.684 298.395,304.042 298.174 C 304.334 297.994,304.419 298.045,304.259 298.304 C 304.114 298.539,304.221 298.813,304.498 298.912 C 305.238 299.177,306.467 298.432,306.146 297.912 C 305.966 297.621,306.100 297.553,306.530 297.718 C 306.911 297.864,307.150 297.787,307.095 297.536 C 307.043 297.296,307.250 297.009,307.556 296.898 C 307.928 296.763,308.007 296.865,307.794 297.210 C 307.587 297.545,307.635 297.625,307.934 297.441 C 308.263 297.237,308.210 296.882,307.745 296.172 C 307.150 295.264,307.150 295.206,307.747 295.435 C 308.104 295.572,308.307 295.826,308.200 296.000 C 307.846 296.574,309.108 296.755,309.822 296.234 C 310.317 295.871,310.385 295.638,310.054 295.433 C 309.797 295.275,309.691 294.977,309.817 294.772 C 309.944 294.568,309.827 294.400,309.557 294.400 C 309.287 294.400,309.175 294.292,309.307 294.159 C 309.619 293.847,311.258 294.988,310.997 295.336 C 310.889 295.481,310.925 295.505,311.078 295.388 C 311.541 295.037,311.564 293.975,311.103 294.260 C 310.851 294.416,310.793 294.334,310.962 294.062 C 311.119 293.808,311.027 293.600,310.757 293.600 C 310.487 293.600,310.375 293.492,310.507 293.359 C 310.872 292.994,312.439 294.222,312.097 294.605 C 311.176 295.638,316.325 291.673,319.956 288.553 C 325.792 283.539,333.834 273.875,333.309 272.508 C 333.154 272.102,333.225 271.968,333.504 272.141 C 333.747 272.291,334.075 272.202,334.234 271.945 C 334.425 271.635,334.349 271.584,334.010 271.794 C 333.667 272.006,333.558 271.926,333.681 271.556 C 333.783 271.250,334.091 271.000,334.366 271.000 C 335.032 271.000,335.972 269.192,335.689 268.455 C 335.548 268.087,335.632 267.973,335.915 268.147 C 336.458 268.483,337.578 266.448,337.293 265.644 C 337.174 265.308,337.273 265.198,337.544 265.365 C 337.837 265.547,337.901 265.406,337.727 264.955 C 337.539 264.465,337.609 264.358,337.972 264.583 C 338.382 264.836,338.383 264.714,337.974 263.948 C 337.511 263.080,337.526 263.047,338.144 263.557 C 338.733 264.042,338.786 264.030,338.566 263.457 C 338.428 263.095,338.124 262.800,337.891 262.800 C 337.657 262.800,337.582 262.684,337.724 262.543 C 337.865 262.402,338.259 262.517,338.599 262.800 C 339.126 263.237,339.177 263.206,338.941 262.591 C 338.752 262.097,338.811 261.959,339.127 262.155 C 339.440 262.348,339.505 262.218,339.327 261.755 C 339.150 261.293,339.215 261.162,339.527 261.355 C 339.837 261.547,339.906 261.420,339.735 260.974 C 339.513 260.396,339.414 260.427,338.999 261.202 C 338.524 262.090,338.517 262.091,338.302 261.268 C 337.927 259.836,338.935 258.886,339.687 259.960 C 340.383 260.954,341.002 260.191,340.519 258.934 C 340.348 258.487,340.417 258.364,340.732 258.558 C 341.325 258.925,341.326 258.584,340.735 257.474 C 340.325 256.706,340.344 256.662,340.888 257.110 C 341.397 257.530,341.548 257.511,341.743 257.005 C 342.007 256.317,341.236 254.330,340.808 254.595 C 340.657 254.688,340.533 254.474,340.533 254.120 C 340.533 253.652,340.790 253.773,341.467 254.560 C 341.980 255.156,342.400 255.536,342.400 255.402 C 342.400 254.836,341.175 252.855,340.708 252.668 C 340.332 252.516,340.326 252.455,340.687 252.432 C 340.956 252.414,341.071 252.130,340.945 251.800 C 340.571 250.826,341.474 251.114,342.371 252.254 C 343.351 253.500,343.440 253.224,342.590 251.580 C 342.254 250.931,341.759 250.394,341.490 250.387 C 341.220 250.379,341.413 250.029,341.918 249.608 C 342.422 249.188,342.814 248.703,342.788 248.532 C 342.761 248.360,342.934 248.155,343.170 248.077 C 343.699 247.900,343.735 248.503,343.227 249.020 C 342.995 249.256,343.081 249.703,343.453 250.200 C 344.022 250.959,344.038 250.940,343.768 249.840 C 343.565 249.014,343.615 248.762,343.942 248.964 C 344.553 249.342,344.499 248.822,343.800 247.600 C 343.486 247.050,343.222 246.825,343.214 247.100 C 343.206 247.375,342.902 247.600,342.539 247.600 C 341.985 247.600,342.011 247.484,342.702 246.885 C 343.319 246.350,343.430 245.997,343.144 245.485 C 342.552 244.427,343.820 244.608,344.577 245.689 C 345.369 246.819,345.377 246.122,344.595 244.249 C 344.262 243.452,343.767 242.797,343.495 242.794 C 343.161 242.790,343.140 242.692,343.429 242.494 C 344.007 242.098,344.550 240.739,344.425 240.000 C 344.262 239.031,344.808 239.802,345.003 240.817 C 345.161 241.639,346.000 242.912,346.000 242.330 C 346.000 241.509,344.675 238.591,344.097 238.141 C 343.435 237.625,343.435 237.610,344.100 237.842 C 344.541 237.996,344.802 237.885,344.806 237.543 C 344.811 237.124,344.901 237.137,345.200 237.600 C 345.526 238.105,345.589 238.082,345.594 237.453 C 345.598 236.902,345.390 236.762,344.799 236.916 C 344.359 237.031,344.100 236.962,344.223 236.763 C 344.617 236.126,345.557 236.373,346.018 237.234 C 346.588 238.299,346.972 237.939,346.647 236.645 C 346.442 235.829,346.210 235.687,345.334 235.846 C 344.413 236.013,344.338 235.957,344.780 235.424 C 345.061 235.086,345.450 234.907,345.645 235.028 C 345.840 235.149,346.000 234.956,346.000 234.600 C 346.000 234.198,345.810 234.060,345.500 234.235 C 345.100 234.461,345.100 234.410,345.500 233.979 C 346.166 233.261,346.135 232.773,345.440 233.040 C 345.133 233.158,344.763 233.064,344.620 232.832 C 344.461 232.575,344.601 232.502,344.979 232.647 C 345.340 232.786,345.600 232.672,345.600 232.376 C 345.600 231.411,346.101 232.370,346.246 233.611 C 346.447 235.338,347.171 236.581,347.188 235.228 C 347.212 233.321,346.297 231.534,345.411 231.757 C 344.624 231.954,344.622 231.943,345.359 231.393 C 346.201 230.764,346.800 230.943,346.800 231.824 C 346.800 232.141,346.993 232.400,347.228 232.400 C 347.463 232.400,347.598 231.995,347.528 231.500 C 347.422 230.751,347.181 230.617,346.099 230.701 C 344.851 230.799,344.826 230.773,345.499 230.079 C 345.955 229.608,346.301 229.503,346.489 229.778 C 346.648 230.010,346.738 229.638,346.689 228.951 C 346.639 228.248,346.411 227.775,346.167 227.869 C 345.928 227.960,345.733 227.765,345.733 227.435 C 345.733 227.105,345.883 226.928,346.067 227.041 C 346.250 227.155,346.400 226.956,346.400 226.600 C 346.400 226.214,346.198 226.055,345.900 226.206 C 345.625 226.345,345.742 226.182,346.159 225.842 C 346.992 225.166,347.600 225.327,347.600 226.224 C 347.600 226.541,347.793 226.800,348.028 226.800 C 348.263 226.800,348.398 226.395,348.327 225.900 C 348.228 225.201,347.961 225.016,347.131 225.071 C 346.488 225.114,345.969 224.897,345.827 224.526 C 345.673 224.125,345.773 223.981,346.114 224.112 C 346.434 224.234,346.661 223.982,346.700 223.461 C 346.746 222.858,346.668 222.767,346.432 223.148 C 346.198 223.526,346.018 223.553,345.824 223.239 C 345.665 222.982,345.941 222.645,346.474 222.444 C 347.604 222.017,348.000 222.213,348.000 223.200 C 348.000 223.614,348.180 224.064,348.400 224.200 C 348.620 224.336,348.800 224.091,348.800 223.656 C 348.800 222.028,348.424 221.705,346.678 221.833 C 345.755 221.901,345.314 221.863,345.699 221.749 C 346.237 221.589,346.308 221.375,346.007 220.813 C 345.568 219.992,346.082 219.367,347.385 219.138 C 347.917 219.045,348.221 219.259,348.324 219.800 C 348.553 220.992,349.200 221.519,349.200 220.513 C 349.200 218.824,348.838 218.504,347.078 218.633 C 346.155 218.701,345.717 218.662,346.105 218.548 C 346.493 218.433,346.688 218.142,346.539 217.902 C 346.374 217.634,346.495 217.551,346.853 217.688 C 347.243 217.838,347.458 217.630,347.500 217.061 C 347.536 216.593,347.438 216.399,347.282 216.630 C 347.088 216.919,346.713 216.902,346.077 216.576 C 345.330 216.193,345.273 216.058,345.777 215.864 C 346.120 215.733,346.400 215.821,346.400 216.062 C 346.400 216.372,346.555 216.370,346.937 216.052 C 347.232 215.807,347.621 215.740,347.801 215.903 C 347.981 216.067,347.991 215.963,347.824 215.673 C 347.657 215.384,347.419 215.248,347.296 215.371 C 346.883 215.784,345.997 214.073,346.264 213.378 C 346.449 212.895,346.360 212.747,345.964 212.881 C 345.633 212.992,345.409 213.587,345.421 214.319 C 345.439 215.376,345.351 215.493,344.846 215.084 C 344.345 214.677,344.297 214.727,344.546 215.400 C 344.818 216.139,344.772 216.132,343.936 215.304 C 343.228 214.603,343.136 214.304,343.516 213.924 C 343.782 213.658,344.000 213.037,344.000 212.544 C 344.000 211.392,344.793 210.885,345.051 211.872 C 345.180 212.366,345.582 212.610,346.221 212.582 C 347.590 212.522,347.968 212.000,346.643 212.000 C 346.043 212.000,345.659 211.828,345.789 211.617 C 345.919 211.407,346.276 211.331,346.582 211.448 C 347.089 211.643,347.125 211.419,346.818 210.000 C 346.794 209.890,346.545 210.102,346.264 210.471 C 345.540 211.423,344.767 210.784,344.678 209.162 C 344.637 208.413,344.447 207.686,344.254 207.547 C 343.939 207.319,343.797 204.719,344.049 203.778 C 344.382 202.533,342.991 197.600,342.306 197.600 C 342.088 197.600,341.988 197.060,342.085 196.400 C 342.182 195.740,342.093 195.200,341.888 195.200 C 341.682 195.200,341.628 194.905,341.766 194.543 C 341.977 193.994,341.918 193.970,341.409 194.392 C 340.893 194.821,340.799 194.753,340.794 193.949 C 340.789 193.190,340.710 193.120,340.400 193.600 C 340.078 194.098,340.008 194.065,339.989 193.400 C 339.939 191.668,333.997 188.424,331.645 188.844 C 331.510 188.868,330.590 189.045,329.600 189.238 M52.901 191.400 C 52.905 192.280,52.987 192.593,53.083 192.095 C 53.179 191.598,53.175 190.878,53.075 190.495 C 52.975 190.113,52.896 190.520,52.901 191.400 M350.320 191.680 C 350.584 191.944,350.800 192.743,350.800 193.456 C 350.800 194.169,350.935 194.836,351.100 194.939 C 351.265 195.041,351.338 194.242,351.261 193.162 C 351.157 191.686,350.964 191.200,350.481 191.200 C 349.983 191.200,349.947 191.307,350.320 191.680 M350.302 198.302 C 350.379 200.006,350.623 201.580,350.844 201.800 C 351.115 202.069,351.158 201.150,350.974 199.000 C 350.618 194.824,350.123 194.310,350.302 198.302 M349.587 203.347 C 349.814 203.574,350.000 204.174,350.000 204.680 C 350.000 205.186,350.144 205.600,350.320 205.600 C 350.496 205.600,350.569 205.000,350.484 204.267 C 350.388 203.443,350.107 202.933,349.751 202.933 C 349.353 202.933,349.302 203.062,349.587 203.347 M349.634 208.000 C 349.622 208.990,349.787 210.070,350.000 210.400 C 350.500 211.174,350.500 208.165,350.000 207.000 C 349.738 206.391,349.651 206.630,349.634 208.000 M349.145 211.389 C 348.830 211.703,349.213 213.561,349.648 213.830 C 349.841 213.949,349.987 213.722,349.972 213.324 C 349.933 212.310,349.421 211.113,349.145 211.389 M348.654 215.200 C 348.757 216.410,349.012 217.571,349.220 217.780 C 349.785 218.345,349.637 216.056,349.003 214.400 C 348.467 213.001,348.467 213.001,348.654 215.200 M344.199 219.981 C 344.238 220.633,344.119 221.073,343.935 220.960 C 343.751 220.846,343.600 220.943,343.600 221.176 C 343.600 221.409,343.420 221.600,343.200 221.600 C 342.980 221.600,342.800 221.240,342.800 220.800 C 342.800 220.360,342.999 220.000,343.243 220.000 C 343.486 220.000,343.589 219.748,343.470 219.439 C 343.248 218.859,343.582 218.249,343.931 218.597 C 344.039 218.706,344.160 219.329,344.199 219.981 M346.244 219.928 C 346.115 220.138,346.262 220.520,346.572 220.777 C 347.017 221.146,347.117 221.116,347.046 220.634 C 346.925 219.808,346.532 219.462,346.244 219.928 M347.045 227.789 C 347.140 228.663,347.394 229.554,347.609 229.769 C 348.190 230.350,348.067 228.827,347.418 227.400 L 346.871 226.200 347.045 227.789 M345.460 239.337 C 346.373 241.133,346.482 241.171,346.333 239.635 C 346.243 238.712,345.977 238.240,345.509 238.172 C 344.863 238.080,344.860 238.157,345.460 239.337 M344.320 242.053 C 344.209 242.354,344.451 243.140,344.857 243.800 C 345.457 244.775,345.594 244.850,345.584 244.200 C 345.566 243.041,344.576 241.358,344.320 242.053 M343.723 245.800 C 343.868 246.866,344.776 248.423,344.774 247.600 C 344.773 247.270,344.511 246.550,344.193 246.000 C 343.713 245.171,343.633 245.137,343.723 245.800 M342.294 249.848 C 342.173 250.044,342.417 250.628,342.837 251.146 C 343.712 252.226,343.822 251.851,343.043 250.446 C 342.752 249.921,342.415 249.652,342.294 249.848 M341.345 252.103 C 341.431 252.689,342.800 254.727,342.800 254.269 C 342.800 253.873,341.629 251.600,341.425 251.600 C 341.340 251.600,341.304 251.826,341.345 252.103 M341.600 256.463 C 341.600 256.664,341.235 256.633,340.789 256.394 C 340.343 256.155,340.089 255.780,340.224 255.561 C 340.498 255.118,341.600 255.841,341.600 256.463 M340.400 258.082 C 340.400 258.750,339.475 258.189,339.367 257.456 C 339.284 256.893,339.376 256.848,339.832 257.227 C 340.144 257.486,340.400 257.871,340.400 258.082 M337.174 264.848 C 336.948 265.271,336.846 265.750,336.946 265.913 C 337.047 266.077,336.916 266.609,336.656 267.096 L 336.181 267.982 335.626 267.091 C 335.119 266.276,335.128 266.247,335.736 266.749 C 336.595 267.459,336.597 266.880,335.738 265.931 C 335.374 265.529,335.269 265.200,335.505 265.200 C 335.740 265.200,336.040 265.425,336.171 265.700 C 336.302 265.975,336.334 265.795,336.242 265.299 C 336.135 264.727,336.231 264.496,336.505 264.665 C 336.775 264.832,336.843 264.690,336.688 264.286 C 336.516 263.836,336.614 263.707,337.013 263.860 C 337.445 264.026,337.485 264.268,337.174 264.848 M335.382 268.587 C 335.250 269.783,334.436 271.287,334.400 270.400 C 334.381 269.930,334.287 269.953,333.963 270.508 C 333.533 271.248,332.796 271.100,332.806 270.276 C 332.810 269.990,332.967 270.039,333.200 270.400 C 333.527 270.906,333.589 270.883,333.594 270.257 C 333.598 269.762,333.800 269.591,334.200 269.745 C 334.930 270.025,334.981 269.555,334.300 268.821 C 333.895 268.385,333.907 268.344,334.363 268.604 C 334.791 268.848,334.874 268.726,334.708 268.092 C 334.562 267.531,334.653 267.322,334.988 267.451 C 335.262 267.556,335.439 268.067,335.382 268.587 M332.912 273.367 C 329.851 278.610,317.838 290.855,312.928 293.736 C 312.160 294.186,311.949 293.339,312.681 292.745 C 313.250 292.284,313.303 292.285,313.021 292.752 C 312.791 293.134,312.860 293.247,313.244 293.119 C 313.550 293.017,313.800 292.732,313.800 292.487 C 313.800 292.241,314.051 291.806,314.359 291.520 C 314.820 291.091,314.862 291.097,314.603 291.552 C 314.389 291.928,314.466 292.045,314.844 291.919 C 315.150 291.817,315.408 291.478,315.418 291.167 C 315.428 290.855,315.698 290.648,316.018 290.706 C 316.411 290.777,316.357 290.622,315.853 290.227 C 315.130 289.662,315.133 289.645,315.925 289.704 C 316.376 289.738,316.656 289.909,316.549 290.083 C 316.195 290.655,317.090 290.414,317.600 289.800 C 317.874 289.470,317.958 289.200,317.787 289.200 C 317.616 289.200,317.774 288.870,318.139 288.468 C 318.503 288.065,318.711 287.645,318.601 287.534 C 318.490 287.424,318.667 287.333,318.994 287.333 C 319.443 287.333,319.480 287.463,319.145 287.867 C 318.891 288.172,318.868 288.400,319.089 288.400 C 319.579 288.400,320.866 287.000,320.611 286.745 C 320.507 286.640,321.496 285.490,322.810 284.190 C 324.125 282.889,325.200 281.976,325.200 282.161 C 325.200 282.347,325.470 282.274,325.800 282.000 C 326.525 281.399,326.603 280.638,325.900 281.035 C 325.515 281.252,325.508 281.201,325.869 280.810 C 326.127 280.531,326.245 280.009,326.131 279.651 C 325.958 279.106,325.991 279.095,326.336 279.581 C 326.562 279.900,326.640 280.350,326.509 280.581 C 326.376 280.816,326.431 280.854,326.636 280.667 C 326.836 280.483,327.008 280.123,327.018 279.867 C 327.028 279.610,327.248 279.443,327.506 279.496 C 327.765 279.549,328.191 279.189,328.454 278.696 C 328.863 277.927,328.849 277.868,328.349 278.280 C 327.880 278.666,327.757 278.624,327.714 278.059 C 327.676 277.553,327.950 277.364,328.697 277.379 C 329.266 277.391,329.815 277.150,329.918 276.844 C 330.020 276.539,329.938 276.391,329.735 276.517 C 329.532 276.642,329.340 276.397,329.308 275.971 C 329.260 275.334,329.382 275.269,330.001 275.600 C 330.950 276.109,331.476 275.414,330.777 274.573 C 330.507 274.247,330.402 273.865,330.543 273.724 C 330.684 273.582,330.800 273.661,330.800 273.898 C 330.800 274.497,332.117 274.248,332.330 273.609 C 332.443 273.270,332.325 273.199,331.990 273.406 C 331.684 273.595,331.575 273.564,331.721 273.328 C 332.055 272.787,333.228 272.825,332.912 273.367 M322.786 284.700 L 320.600 287.000 322.900 284.814 C 325.037 282.782,325.383 282.400,325.086 282.400 C 325.024 282.400,323.989 283.435,322.786 284.700 M81.400 285.200 C 82.483 286.300,83.460 287.200,83.570 287.200 C 83.680 287.200,82.883 286.300,81.800 285.200 C 80.717 284.100,79.740 283.200,79.630 283.200 C 79.520 283.200,80.317 284.100,81.400 285.200 M85.897 289.237 C 86.170 289.587,86.300 289.966,86.187 290.080 C 86.073 290.193,86.300 290.537,86.690 290.843 C 87.320 291.338,87.344 291.329,86.903 290.763 C 86.630 290.413,86.500 290.034,86.613 289.920 C 86.727 289.807,86.500 289.463,86.110 289.157 C 85.480 288.662,85.456 288.671,85.897 289.237 M306.988 296.380 C 307.117 296.589,306.875 296.946,306.451 297.173 C 305.874 297.482,305.627 297.448,305.470 297.038 C 305.320 296.647,305.498 296.553,306.092 296.708 C 306.659 296.856,306.834 296.778,306.639 296.463 C 306.482 296.208,306.443 296.000,306.553 296.000 C 306.663 296.000,306.858 296.171,306.988 296.380 M302.608 300.097 C 301.483 300.674,300.993 300.752,300.653 300.410 C 300.314 300.068,300.393 300.026,300.966 300.244 C 301.496 300.447,301.643 300.394,301.445 300.073 C 301.252 299.760,301.382 299.695,301.845 299.873 C 302.307 300.050,302.438 299.985,302.245 299.673 C 302.052 299.360,302.182 299.295,302.645 299.473 C 303.107 299.650,303.238 299.585,303.045 299.273 C 302.853 298.962,302.981 298.894,303.433 299.068 C 303.966 299.272,303.791 299.490,302.608 300.097 M232.000 308.775 C 232.000 308.981,231.652 309.124,231.228 309.092 C 230.803 309.060,230.544 308.891,230.651 308.717 C 230.925 308.273,232.000 308.320,232.000 308.775 M222.899 309.433 C 223.027 309.561,222.875 310.281,222.561 311.033 C 222.057 312.238,222.061 312.400,222.595 312.400 C 222.928 312.400,223.202 312.085,223.205 311.700 C 223.208 311.315,223.319 310.595,223.452 310.100 C 223.611 309.509,223.517 309.200,223.180 309.200 C 222.898 309.200,222.771 309.305,222.899 309.433 M252.388 310.016 C 251.897 310.327,251.893 310.389,252.367 310.394 C 252.678 310.397,252.850 310.483,252.749 310.584 C 252.648 310.685,252.158 310.662,251.661 310.532 L 250.757 310.295 251.678 309.815 C 252.715 309.274,253.299 309.440,252.388 310.016 M244.624 310.613 C 244.121 310.993,244.039 311.200,244.390 311.200 C 244.689 311.200,244.850 311.283,244.749 311.384 C 244.648 311.485,244.158 311.462,243.661 311.332 L 242.757 311.095 243.678 310.587 C 244.953 309.883,245.566 309.900,244.624 310.613 M145.600 310.800 C 144.805 311.314,145.804 311.314,147.000 310.800 L 147.800 310.456 147.000 310.434 C 146.560 310.422,145.930 310.587,145.600 310.800 M149.200 311.218 C 148.762 311.515,148.924 311.552,149.800 311.356 C 151.271 311.027,151.590 310.798,150.567 310.806 C 150.145 310.809,149.530 310.995,149.200 311.218 M225.600 311.200 C 226.102 311.524,226.075 311.589,225.433 311.594 C 225.012 311.597,224.773 311.706,224.903 311.837 C 225.033 311.967,225.537 311.947,226.023 311.793 C 226.895 311.516,226.448 310.812,225.400 310.812 C 225.180 310.812,225.270 310.987,225.600 311.200 M152.600 311.600 L 151.800 311.944 152.600 311.932 C 153.040 311.926,153.850 311.776,154.400 311.600 L 155.400 311.280 154.400 311.268 C 153.850 311.262,153.040 311.411,152.600 311.600 M156.600 312.000 L 155.800 312.344 156.600 312.332 C 157.040 312.326,157.850 312.176,158.400 312.000 L 159.400 311.680 158.400 311.668 C 157.850 311.662,157.040 311.811,156.600 312.000 M161.600 312.227 C 160.409 312.663,160.349 312.738,161.200 312.730 C 162.772 312.715,164.316 312.206,163.600 311.939 C 163.270 311.816,162.370 311.946,161.600 312.227 M234.800 312.000 C 235.333 312.345,235.333 312.394,234.800 312.440 C 233.945 312.514,237.198 313.155,238.400 313.149 C 239.054 313.146,238.639 312.881,237.200 312.383 C 234.780 311.547,233.875 311.402,234.800 312.000 M228.400 312.359 C 228.909 312.723,228.879 312.796,228.200 312.844 C 227.000 312.928,230.784 313.543,232.400 313.526 C 233.897 313.511,234.059 313.570,228.800 312.193 C 228.023 311.989,227.934 312.026,228.400 312.359 M166.200 312.800 L 165.400 313.144 166.200 313.125 C 166.640 313.114,167.540 312.968,168.200 312.800 L 169.400 312.495 168.200 312.475 C 167.540 312.465,166.640 312.611,166.200 312.800 M172.200 313.024 C 170.645 313.398,170.467 313.510,171.400 313.529 C 173.333 313.569,175.948 313.006,175.000 312.754 C 174.560 312.638,173.300 312.759,172.200 313.024 M221.000 312.800 C 221.743 313.119,221.731 313.146,220.833 313.172 C 218.977 313.226,220.225 313.505,223.400 313.745 L 226.600 313.988 224.000 313.208 C 221.330 312.407,219.510 312.160,221.000 312.800 M225.300 312.676 C 225.685 312.776,226.315 312.776,226.700 312.676 C 227.085 312.575,226.770 312.493,226.000 312.493 C 225.230 312.493,224.915 312.575,225.300 312.676 M179.000 313.435 L 177.000 313.973 178.956 313.787 C 180.032 313.684,181.457 313.600,182.122 313.600 C 183.505 313.600,183.457 313.408,182.000 313.105 C 181.450 312.990,180.100 313.139,179.000 313.435 M185.900 313.089 C 186.615 313.178,187.785 313.178,188.500 313.089 C 189.215 313.001,188.630 312.928,187.200 312.928 C 185.770 312.928,185.185 313.001,185.900 313.089 M191.101 313.433 C 190.966 313.567,189.539 313.815,187.928 313.984 L 185.000 314.291 188.086 314.346 L 191.173 314.400 191.288 318.700 L 191.403 323.000 191.602 318.459 C 191.789 314.164,191.661 312.873,191.101 313.433 " stroke="none" fill="#000000" fill-rule="evenodd"></path><path id="path1" d="M188.600 13.626 C 166.835 14.334,141.771 16.784,125.454 19.797 C 108.408 22.945,93.848 30.112,82.375 41.002 C 77.852 45.295,73.777 50.127,75.662 48.962 C 75.950 48.784,76.015 48.852,75.834 49.145 C 75.675 49.402,75.387 49.515,75.193 49.396 C 74.086 48.712,63.978 65.522,64.569 67.064 C 64.691 67.382,64.639 67.548,64.454 67.433 C 63.471 66.826,58.066 83.942,58.509 86.259 C 58.606 86.763,58.562 87.100,58.413 87.008 C 58.034 86.774,56.652 95.838,56.949 96.611 C 57.082 96.958,57.031 97.142,56.835 97.021 C 56.377 96.739,55.844 101.247,56.190 102.472 C 56.402 103.223,56.366 103.285,55.997 102.800 C 55.645 102.335,55.581 102.680,55.716 104.334 C 55.829 105.724,55.759 106.282,55.516 105.934 C 55.272 105.586,55.203 106.143,55.316 107.534 C 55.411 108.707,55.355 109.450,55.191 109.185 C 54.798 108.549,54.245 114.853,54.588 116.064 C 54.802 116.821,54.765 116.885,54.396 116.400 C 54.045 115.939,53.982 116.448,54.122 118.600 C 54.228 120.231,54.168 121.066,53.980 120.600 C 53.705 119.921,53.650 119.982,53.617 121.000 C 53.595 121.660,53.318 125.530,53.002 129.600 C 51.338 150.998,51.339 177.564,53.004 198.229 C 53.322 202.173,53.704 206.926,53.853 208.792 C 54.029 210.984,54.231 211.904,54.424 211.392 C 54.589 210.956,54.637 211.680,54.530 213.000 C 54.411 214.468,54.475 215.204,54.694 214.896 C 54.914 214.587,54.993 215.355,54.900 216.896 C 54.802 218.508,54.880 219.210,55.119 218.866 C 55.359 218.519,55.437 219.079,55.341 220.466 C 55.236 221.977,55.300 222.366,55.558 221.800 C 55.807 221.257,55.862 221.770,55.730 223.400 C 55.599 225.019,55.662 225.620,55.925 225.246 C 56.190 224.868,56.254 225.312,56.127 226.646 C 55.999 227.975,56.063 228.423,56.327 228.046 C 56.590 227.669,56.654 228.117,56.527 229.446 C 56.386 230.908,56.448 231.249,56.769 230.800 C 57.100 230.339,57.146 230.477,56.970 231.400 C 56.624 233.207,58.998 246.572,59.598 246.201 C 59.755 246.104,59.794 246.496,59.684 247.072 C 59.562 247.712,59.639 248.023,59.884 247.872 C 60.129 247.720,60.207 248.031,60.084 248.672 C 59.947 249.388,60.027 249.630,60.337 249.439 C 60.627 249.260,60.707 249.378,60.558 249.765 C 60.254 250.558,62.358 256.873,62.829 256.582 C 63.028 256.459,63.096 256.605,62.981 256.906 C 62.726 257.570,65.023 263.031,65.512 262.924 C 65.702 262.882,65.845 263.242,65.829 263.724 C 65.813 264.208,66.017 264.557,66.286 264.505 C 66.553 264.452,66.680 264.648,66.568 264.938 C 65.800 266.940,76.763 281.893,83.150 287.555 C 85.851 289.950,87.040 290.692,85.949 289.300 C 85.452 288.667,85.466 288.652,86.096 289.145 C 86.478 289.445,86.701 289.836,86.591 290.015 C 85.875 291.174,103.432 302.057,105.030 301.444 C 105.366 301.315,105.544 301.366,105.426 301.558 C 105.126 302.043,107.441 302.946,108.038 302.577 C 108.334 302.393,108.420 302.444,108.258 302.706 C 107.931 303.236,110.590 304.177,111.254 303.767 C 111.568 303.573,111.616 303.650,111.399 304.001 C 111.158 304.392,111.295 304.468,111.938 304.300 C 112.491 304.156,112.707 304.228,112.538 304.500 C 112.369 304.773,112.585 304.845,113.138 304.700 C 113.691 304.556,113.907 304.628,113.738 304.900 C 113.569 305.173,113.785 305.245,114.338 305.100 C 114.813 304.976,115.112 305.019,115.003 305.195 C 114.723 305.649,116.699 306.080,117.734 305.790 C 118.365 305.613,118.448 305.652,118.042 305.934 C 117.310 306.439,123.159 307.780,124.476 307.409 C 125.102 307.232,125.228 307.267,124.866 307.519 C 123.956 308.150,143.432 310.974,146.200 310.612 C 147.268 310.472,147.535 310.515,147.004 310.740 C 145.955 311.185,151.130 311.719,153.625 311.423 C 155.048 311.254,155.202 311.290,154.400 311.600 C 153.659 311.888,154.177 311.947,156.400 311.828 C 158.283 311.727,159.028 311.789,158.400 311.994 C 157.604 312.254,157.808 312.323,159.400 312.332 C 160.500 312.338,161.760 312.201,162.200 312.027 C 162.640 311.853,163.270 311.813,163.600 311.937 C 164.037 312.102,163.928 312.248,163.200 312.476 C 162.623 312.656,163.722 312.724,165.800 312.637 C 167.973 312.545,168.924 312.608,168.200 312.795 C 166.472 313.242,170.898 313.298,172.809 312.853 C 173.583 312.673,174.573 312.657,175.009 312.817 C 175.650 313.054,175.535 313.143,174.400 313.290 C 173.511 313.406,173.950 313.492,175.600 313.526 C 177.030 313.556,178.861 313.427,179.668 313.240 C 180.475 313.052,181.645 313.010,182.268 313.146 C 183.243 313.359,183.123 313.426,181.400 313.634 C 180.025 313.799,180.902 313.894,184.203 313.937 C 186.844 313.972,189.579 313.835,190.281 313.634 C 191.892 313.172,191.851 312.994,191.540 319.095 C 191.121 327.309,191.150 400.000,191.572 400.000 C 191.777 400.000,192.022 399.595,192.118 399.100 L 192.291 398.200 192.346 399.100 L 192.400 400.000 202.200 400.000 L 212.000 400.000 212.040 399.100 C 212.078 398.231,212.092 398.234,212.434 399.200 C 212.738 400.055,212.761 400.004,212.595 398.850 C 212.488 398.108,212.400 378.803,212.400 355.950 L 212.400 314.400 211.533 314.400 C 211.057 314.400,210.772 314.505,210.901 314.634 C 211.029 314.763,210.946 315.410,210.715 316.073 L 210.295 317.278 209.427 316.339 C 208.949 315.823,208.423 315.045,208.258 314.611 C 207.905 313.686,207.217 314.430,207.206 315.749 C 207.201 316.369,207.097 316.412,206.600 316.000 C 206.270 315.726,206.000 315.263,206.000 314.971 C 206.000 313.801,200.721 311.200,198.345 311.200 C 198.023 311.200,197.560 311.000,197.316 310.756 C 196.733 310.173,197.461 308.000,198.239 308.000 C 198.548 308.000,198.800 307.790,198.800 307.533 C 198.800 307.277,198.914 307.180,199.053 307.319 C 199.192 307.458,199.687 307.364,200.153 307.110 C 201.624 306.309,205.093 306.100,206.289 306.741 C 206.761 306.993,207.266 306.995,207.710 306.746 C 208.264 306.436,208.400 306.521,208.400 307.180 C 208.400 307.631,208.220 308.000,208.000 308.000 C 207.040 308.000,207.719 309.070,208.900 309.417 C 209.905 309.713,210.206 310.027,210.227 310.800 C 210.256 311.857,211.557 314.590,211.584 313.651 C 211.596 313.232,211.729 313.209,212.148 313.557 C 212.595 313.928,212.671 313.796,212.561 312.846 C 212.427 311.700,212.455 311.682,214.112 311.833 C 215.531 311.962,215.641 311.925,214.800 311.601 C 214.021 311.300,214.286 311.251,216.000 311.381 C 217.520 311.496,217.891 311.444,217.200 311.213 C 216.213 310.884,216.215 310.879,217.396 310.840 L 218.592 310.800 217.493 309.782 C 216.657 309.006,216.230 308.855,215.703 309.150 C 215.107 309.484,215.175 309.578,216.191 309.834 C 217.210 310.089,217.265 310.167,216.594 310.402 C 216.167 310.552,215.623 310.478,215.386 310.237 C 214.815 309.658,214.309 308.296,214.771 308.582 C 215.349 308.940,217.279 308.051,216.979 307.566 C 216.831 307.326,216.396 307.212,216.012 307.313 C 215.628 307.413,215.009 307.325,214.636 307.116 C 214.182 306.862,213.767 306.896,213.379 307.217 C 212.916 307.601,212.800 307.574,212.800 307.082 C 212.800 306.744,212.575 306.375,212.300 306.264 C 211.909 306.105,211.916 305.979,212.334 305.686 C 212.758 305.388,212.718 305.253,212.134 305.027 C 211.434 304.756,211.437 304.714,212.200 304.118 C 212.845 303.614,212.864 303.539,212.300 303.734 C 211.915 303.866,211.600 303.801,211.600 303.587 C 211.600 303.374,211.774 303.200,211.987 303.200 C 212.201 303.200,212.296 302.975,212.199 302.700 C 211.827 301.640,217.096 293.755,219.979 291.059 C 222.525 288.677,225.103 287.427,235.337 283.614 C 248.695 278.637,253.952 276.098,265.400 269.093 C 289.581 254.297,307.333 232.744,319.436 203.486 C 324.573 191.069,325.309 190.064,329.900 189.211 C 333.917 188.464,339.918 190.956,339.989 193.400 C 340.008 194.065,340.078 194.098,340.400 193.600 C 340.710 193.120,340.789 193.190,340.794 193.949 C 340.799 194.753,340.893 194.821,341.409 194.392 C 341.918 193.970,341.977 193.994,341.766 194.543 C 341.628 194.905,341.682 195.200,341.888 195.200 C 342.093 195.200,342.182 195.740,342.085 196.400 C 341.988 197.060,342.088 197.600,342.306 197.600 C 342.991 197.600,344.382 202.533,344.049 203.778 C 343.797 204.719,343.939 207.319,344.254 207.547 C 344.447 207.686,344.637 208.413,344.678 209.162 C 344.767 210.784,345.540 211.423,346.264 210.471 C 346.545 210.102,346.794 209.890,346.818 210.000 C 347.125 211.419,347.089 211.643,346.582 211.448 C 346.276 211.331,345.919 211.407,345.789 211.617 C 345.659 211.828,346.043 212.000,346.643 212.000 C 347.968 212.000,347.590 212.522,346.221 212.582 C 345.582 212.610,345.180 212.366,345.051 211.872 C 344.793 210.885,344.000 211.392,344.000 212.544 C 344.000 213.037,343.782 213.658,343.516 213.924 C 343.136 214.304,343.228 214.603,343.936 215.304 C 344.772 216.132,344.818 216.139,344.546 215.400 C 344.297 214.727,344.345 214.677,344.846 215.084 C 345.351 215.493,345.439 215.376,345.421 214.319 C 345.409 213.587,345.633 212.992,345.964 212.881 C 346.360 212.747,346.449 212.895,346.264 213.378 C 346.009 214.042,346.983 215.937,347.441 215.667 C 347.565 215.593,347.742 215.638,347.833 215.767 C 347.925 215.895,347.882 215.912,347.737 215.803 C 347.592 215.695,347.232 215.807,346.937 216.052 C 346.555 216.370,346.400 216.372,346.400 216.062 C 346.400 215.821,346.120 215.733,345.777 215.864 C 345.273 216.058,345.330 216.193,346.077 216.576 C 346.713 216.902,347.088 216.919,347.282 216.630 C 347.438 216.399,347.536 216.593,347.500 217.061 C 347.458 217.630,347.243 217.838,346.853 217.688 C 346.495 217.551,346.374 217.634,346.539 217.902 C 346.688 218.142,346.493 218.433,346.105 218.548 C 345.717 218.662,346.158 218.700,347.085 218.632 C 348.047 218.562,348.862 218.700,348.985 218.954 C 349.104 219.199,349.094 218.680,348.964 217.800 C 348.833 216.920,348.667 215.480,348.596 214.600 L 348.465 213.000 349.002 214.400 C 349.638 216.057,349.810 214.926,349.229 212.903 C 349.026 212.192,349.012 211.516,349.199 211.400 C 349.386 211.285,349.628 211.507,349.736 211.895 C 349.844 212.283,349.855 211.160,349.761 209.400 C 349.635 207.056,349.698 206.414,349.998 207.000 C 350.304 207.600,350.346 207.299,350.166 205.800 C 350.033 204.700,349.732 203.565,349.495 203.277 C 349.174 202.888,349.209 202.786,349.632 202.877 C 349.945 202.945,350.326 203.540,350.479 204.200 C 350.633 204.860,350.665 203.960,350.550 202.200 C 350.171 196.381,350.159 195.251,350.481 195.450 C 350.657 195.559,350.825 196.582,350.856 197.724 C 350.905 199.556,350.953 199.425,351.261 196.600 C 351.608 193.427,351.369 181.337,350.929 179.800 C 350.801 179.350,350.854 179.145,351.050 179.332 C 351.243 179.514,351.516 180.954,351.657 182.532 C 351.836 184.534,351.879 183.890,351.799 180.400 C 351.732 177.527,351.819 175.825,352.002 176.400 C 352.399 177.648,352.497 154.100,352.126 146.563 C 351.975 143.503,351.735 141.450,351.593 142.000 C 351.451 142.550,351.382 140.750,351.440 138.000 C 351.514 134.488,351.444 133.476,351.205 134.600 C 350.959 135.751,350.922 135.281,351.071 132.926 C 351.345 128.610,350.766 121.052,350.342 123.400 C 350.156 124.426,350.121 123.983,350.244 122.165 C 350.487 118.565,349.961 113.055,349.579 115.200 C 349.436 116.005,349.344 115.069,349.365 113.000 C 349.410 108.405,348.452 100.899,347.917 101.658 C 347.657 102.028,347.616 101.833,347.789 101.044 C 348.148 99.410,347.608 95.358,347.125 96.059 C 346.878 96.417,346.837 96.166,347.003 95.320 C 347.329 93.662,346.836 90.331,346.312 90.654 C 346.068 90.805,346.018 90.574,346.182 90.055 C 346.559 88.870,346.002 85.357,345.549 86.060 C 345.339 86.387,345.305 86.062,345.463 85.238 C 345.668 84.172,345.611 83.946,345.201 84.200 C 344.848 84.418,344.773 84.368,344.971 84.047 C 345.430 83.304,344.801 80.166,344.330 80.848 C 344.058 81.240,344.021 81.138,344.201 80.498 C 344.621 79.008,342.230 71.410,341.487 71.870 C 341.250 72.016,341.198 71.927,341.364 71.658 C 341.739 71.051,341.251 69.521,340.776 69.815 C 340.574 69.940,340.515 69.766,340.644 69.429 C 341.135 68.149,333.642 54.079,332.760 54.625 C 332.567 54.744,332.508 54.585,332.628 54.271 C 332.899 53.565,327.577 46.814,323.538 42.739 C 312.048 31.147,297.008 23.299,280.000 20.019 C 260.839 16.324,218.461 12.759,199.800 13.272 C 198.700 13.302,193.660 13.461,188.600 13.626 M203.900 13.894 C 202.855 13.976,201.145 13.976,200.100 13.894 C 199.055 13.812,199.910 13.744,202.000 13.744 C 204.090 13.744,204.945 13.812,203.900 13.894 M53.083 137.295 C 52.987 137.793,52.905 137.480,52.901 136.600 C 52.896 135.720,52.975 135.313,53.075 135.695 C 53.175 136.078,53.179 136.798,53.083 137.295 M52.690 146.093 C 52.601 146.812,52.526 146.320,52.524 145.000 C 52.522 143.680,52.595 143.092,52.686 143.693 C 52.777 144.294,52.779 145.374,52.690 146.093 M351.882 150.900 C 351.787 151.395,351.709 150.990,351.709 150.000 C 351.709 149.010,351.787 148.605,351.882 149.100 C 351.978 149.595,351.978 150.405,351.882 150.900 M52.299 168.923 C 52.230 171.605,52.173 169.300,52.173 163.800 C 52.174 158.300,52.230 156.105,52.299 158.923 C 52.368 161.741,52.368 166.241,52.299 168.923 M351.496 164.685 C 351.416 165.958,351.351 165.020,351.350 162.600 C 351.349 160.180,351.414 159.138,351.494 160.285 C 351.575 161.432,351.576 163.412,351.496 164.685 M52.687 183.495 C 52.595 184.103,52.517 183.700,52.514 182.600 C 52.511 181.500,52.587 181.003,52.682 181.495 C 52.777 181.986,52.779 182.886,52.687 183.495 M350.683 188.895 C 350.587 189.393,350.505 189.080,350.501 188.200 C 350.496 187.320,350.575 186.913,350.675 187.295 C 350.775 187.678,350.779 188.398,350.683 188.895 M53.083 192.095 C 52.987 192.593,52.905 192.280,52.901 191.400 C 52.896 190.520,52.975 190.113,53.075 190.495 C 53.175 190.878,53.179 191.598,53.083 192.095 M351.136 193.100 C 351.081 194.726,351.048 194.798,350.903 193.602 C 350.811 192.832,350.547 191.977,350.318 191.702 C 350.014 191.335,350.076 191.200,350.551 191.200 C 351.068 191.200,351.187 191.588,351.136 193.100 M343.494 218.639 C 343.363 218.771,343.352 219.131,343.470 219.439 C 343.589 219.748,343.486 220.000,343.243 220.000 C 342.999 220.000,342.800 220.360,342.800 220.800 C 342.800 221.240,342.980 221.600,343.200 221.600 C 343.420 221.600,343.600 221.409,343.600 221.176 C 343.600 220.943,343.751 220.846,343.935 220.960 C 344.119 221.073,344.238 220.633,344.199 219.981 C 344.123 218.714,343.881 218.252,343.494 218.639 M347.200 219.104 C 345.976 219.519,345.602 220.056,346.007 220.813 C 346.308 221.375,346.237 221.589,345.699 221.749 C 345.314 221.863,345.758 221.900,346.685 221.832 C 347.647 221.762,348.462 221.900,348.585 222.154 C 348.704 222.399,348.697 221.880,348.569 221.000 C 348.305 219.174,348.047 218.816,347.200 219.104 M347.046 220.634 C 347.117 221.116,347.017 221.146,346.572 220.777 C 346.262 220.520,346.115 220.138,346.244 219.928 C 346.532 219.462,346.925 219.808,347.046 220.634 M346.474 222.438 C 345.941 222.643,345.666 222.982,345.824 223.239 C 346.018 223.553,346.198 223.526,346.432 223.148 C 346.668 222.767,346.746 222.858,346.700 223.461 C 346.661 223.982,346.434 224.234,346.114 224.112 C 345.781 223.984,345.673 224.124,345.816 224.497 C 346.306 225.774,348.447 225.139,348.167 223.800 C 347.836 222.220,347.581 222.014,346.474 222.438 M346.179 225.828 C 345.750 226.175,345.625 226.345,345.900 226.206 C 346.198 226.055,346.400 226.214,346.400 226.600 C 346.400 226.956,346.250 227.155,346.067 227.041 C 345.883 226.928,345.733 227.105,345.733 227.435 C 345.733 227.765,345.928 227.960,346.167 227.869 C 346.411 227.775,346.639 228.248,346.689 228.951 C 346.738 229.638,346.648 230.010,346.489 229.778 C 346.300 229.502,345.966 229.597,345.525 230.053 C 344.886 230.712,344.926 230.746,346.243 230.675 C 347.518 230.606,347.615 230.516,347.381 229.600 C 347.240 229.050,347.068 228.060,346.999 227.400 L 346.872 226.200 347.455 227.400 L 348.037 228.600 347.811 227.213 C 347.514 225.391,347.125 225.061,346.179 225.828 M345.379 231.379 C 344.613 231.950,344.614 231.957,345.414 231.756 C 346.026 231.602,346.347 231.831,346.706 232.676 L 347.183 233.800 346.963 232.600 C 346.665 230.973,346.299 230.691,345.379 231.379 M345.600 232.376 C 345.600 232.672,345.340 232.786,344.979 232.647 C 344.601 232.502,344.461 232.575,344.620 232.832 C 344.763 233.064,345.133 233.158,345.440 233.040 C 346.135 232.773,346.166 233.261,345.500 233.979 C 345.100 234.410,345.100 234.461,345.500 234.235 C 345.810 234.060,346.000 234.198,346.000 234.600 C 346.000 234.956,345.840 235.149,345.645 235.028 C 345.450 234.907,345.061 235.086,344.780 235.424 C 344.339 235.956,344.411 236.014,345.312 235.850 C 345.892 235.745,346.454 235.869,346.579 236.131 C 346.703 236.389,346.696 236.060,346.563 235.400 C 346.430 234.740,346.273 233.789,346.214 233.287 C 346.097 232.290,345.600 231.553,345.600 232.376 M344.223 236.763 C 344.100 236.962,344.359 237.031,344.799 236.916 C 345.390 236.762,345.598 236.902,345.594 237.453 C 345.589 238.082,345.526 238.105,345.200 237.600 C 344.901 237.137,344.811 237.124,344.806 237.543 C 344.802 237.885,344.541 237.996,344.100 237.842 C 343.436 237.611,343.436 237.626,344.102 238.145 C 344.488 238.445,345.076 239.391,345.408 240.246 C 345.903 241.522,345.972 241.585,345.793 240.600 C 345.390 238.381,345.398 238.200,345.900 238.300 C 346.508 238.422,346.526 238.184,345.986 237.174 C 345.552 236.363,344.606 236.143,344.223 236.763 M344.425 240.000 C 344.550 240.739,344.007 242.098,343.429 242.494 C 343.140 242.692,343.163 242.790,343.499 242.794 C 343.773 242.797,344.270 243.385,344.603 244.100 C 345.063 245.087,345.155 245.159,344.987 244.400 C 344.865 243.850,344.683 242.950,344.583 242.400 L 344.400 241.400 345.025 242.400 L 345.650 243.400 345.409 242.400 C 345.277 241.850,345.091 241.061,344.997 240.646 C 344.788 239.728,344.283 239.158,344.425 240.000 M343.144 245.485 C 343.430 245.997,343.319 246.350,342.702 246.885 C 342.011 247.484,341.985 247.600,342.539 247.600 C 342.902 247.600,343.206 247.375,343.214 247.100 C 343.222 246.825,343.486 247.050,343.800 247.600 C 344.176 248.258,344.376 248.384,344.386 247.967 C 344.394 247.618,344.275 247.209,344.123 247.056 C 343.971 246.904,343.794 246.379,343.730 245.890 C 343.620 245.044,343.643 245.050,344.193 246.000 C 344.562 246.638,344.777 246.775,344.786 246.380 C 344.803 245.621,344.031 244.800,343.300 244.800 C 342.908 244.800,342.865 244.987,343.144 245.485 M342.600 248.400 C 342.464 248.620,342.493 248.800,342.665 248.800 C 342.837 248.800,342.584 249.076,342.102 249.413 C 341.232 250.023,341.231 250.031,342.013 250.813 C 343.018 251.818,343.068 252.767,342.069 251.862 C 341.158 251.038,340.641 251.009,340.945 251.800 C 341.071 252.130,341.001 252.400,340.787 252.400 C 340.574 252.400,340.760 252.760,341.200 253.200 C 342.215 254.215,342.275 255.173,341.267 254.260 C 340.660 253.711,340.533 253.698,340.533 254.181 C 340.533 254.502,340.664 254.684,340.825 254.585 C 340.985 254.486,341.225 254.688,341.358 255.035 C 341.728 256.000,341.652 256.141,341.036 255.630 C 340.672 255.327,340.384 255.303,340.224 255.561 C 340.089 255.780,340.328 256.148,340.757 256.377 C 341.635 256.847,344.295 250.034,343.769 248.664 C 343.482 247.917,342.970 247.801,342.600 248.400 M343.600 249.447 C 343.600 249.784,343.406 249.927,343.157 249.774 C 342.852 249.585,342.808 249.795,343.015 250.447 C 343.285 251.297,343.247 251.337,342.648 250.840 C 342.047 250.341,342.042 250.217,342.591 249.610 C 342.927 249.239,343.066 248.786,342.901 248.603 C 342.735 248.421,342.825 248.401,343.100 248.559 C 343.375 248.718,343.600 249.117,343.600 249.447 M342.400 253.356 C 342.400 254.005,341.459 252.883,341.349 252.104 C 341.262 251.479,341.315 251.487,341.825 252.176 C 342.141 252.604,342.400 253.135,342.400 253.356 M339.370 257.478 C 339.425 257.851,339.679 258.226,339.935 258.312 C 340.191 258.397,340.400 258.642,340.400 258.857 C 340.400 259.072,340.222 259.137,340.005 259.003 C 339.767 258.856,339.717 259.046,339.879 259.479 C 340.113 260.101,340.061 260.128,339.503 259.674 C 338.672 258.999,337.932 260.181,338.422 261.400 C 338.886 262.554,338.863 262.790,338.300 262.653 C 338.025 262.586,337.935 262.607,338.100 262.699 C 338.265 262.791,338.400 263.042,338.400 263.257 C 338.400 263.472,338.222 263.537,338.005 263.403 C 337.772 263.259,337.715 263.433,337.865 263.826 C 338.085 264.397,337.999 264.428,337.270 264.037 C 336.538 263.646,336.454 263.676,336.677 264.256 C 336.841 264.685,336.779 264.834,336.505 264.665 C 336.231 264.496,336.135 264.727,336.242 265.299 C 336.334 265.795,336.302 265.975,336.171 265.700 C 336.040 265.425,335.740 265.200,335.505 265.200 C 335.269 265.200,335.374 265.529,335.738 265.931 C 336.611 266.896,336.587 267.439,335.700 266.768 C 335.104 266.318,335.075 266.322,335.500 266.799 C 336.246 267.636,336.104 268.084,335.239 267.621 C 334.582 267.269,334.509 267.330,334.702 268.069 C 334.873 268.724,334.794 268.850,334.363 268.604 C 333.907 268.344,333.895 268.385,334.300 268.821 C 334.981 269.555,334.930 270.025,334.200 269.745 C 333.800 269.591,333.598 269.762,333.594 270.257 C 333.589 270.883,333.527 270.906,333.200 270.400 C 332.967 270.039,332.810 269.990,332.806 270.276 C 332.803 270.538,332.980 270.864,333.200 271.000 C 334.006 271.498,333.596 272.026,332.754 271.575 C 332.078 271.213,331.947 271.231,332.104 271.661 C 332.212 271.958,332.519 272.149,332.788 272.088 C 333.056 272.026,333.198 272.206,333.104 272.488 C 333.010 272.769,332.738 273.000,332.500 273.000 C 332.262 273.000,331.917 273.164,331.733 273.364 C 331.537 273.579,331.626 273.597,331.952 273.408 C 332.320 273.195,332.446 273.262,332.330 273.609 C 332.117 274.248,330.800 274.497,330.800 273.898 C 330.800 273.661,330.684 273.582,330.543 273.724 C 330.402 273.865,330.507 274.247,330.777 274.573 C 331.476 275.414,330.950 276.109,330.001 275.600 C 329.382 275.269,329.260 275.334,329.308 275.971 C 329.340 276.397,329.532 276.642,329.735 276.517 C 329.938 276.391,330.020 276.539,329.918 276.844 C 329.815 277.150,329.266 277.391,328.697 277.379 C 327.950 277.364,327.676 277.553,327.714 278.059 C 327.757 278.624,327.880 278.666,328.349 278.280 C 328.849 277.868,328.863 277.927,328.454 278.696 C 328.191 279.189,327.765 279.549,327.506 279.496 C 327.248 279.443,327.028 279.610,327.018 279.867 C 327.008 280.123,326.836 280.483,326.636 280.667 C 326.431 280.854,326.376 280.816,326.509 280.581 C 326.640 280.350,326.562 279.900,326.336 279.581 C 325.991 279.095,325.958 279.106,326.131 279.651 C 326.245 280.009,326.127 280.531,325.869 280.810 C 325.508 281.201,325.515 281.252,325.900 281.035 C 326.175 280.880,326.400 280.921,326.400 281.127 C 326.400 281.595,325.392 282.459,325.140 282.207 C 325.038 282.105,323.890 283.096,322.590 284.410 C 321.289 285.725,320.382 286.800,320.575 286.800 C 320.767 286.800,320.598 287.160,320.200 287.600 C 319.401 288.483,318.429 288.729,319.145 287.867 C 319.480 287.463,319.443 287.333,318.994 287.333 C 318.667 287.333,318.490 287.424,318.601 287.534 C 318.711 287.645,318.503 288.065,318.139 288.468 C 317.774 288.870,317.616 289.200,317.787 289.200 C 317.958 289.200,317.874 289.470,317.600 289.800 C 317.090 290.414,316.195 290.655,316.549 290.083 C 316.656 289.909,316.376 289.738,315.925 289.704 C 315.133 289.645,315.130 289.662,315.853 290.227 C 316.357 290.622,316.411 290.777,316.018 290.706 C 315.698 290.648,315.428 290.855,315.418 291.167 C 315.408 291.478,315.150 291.817,314.844 291.919 C 314.460 292.047,314.391 291.934,314.621 291.552 C 314.901 291.087,314.849 291.085,314.290 291.538 C 313.924 291.834,313.665 292.262,313.713 292.488 C 313.761 292.715,313.550 292.991,313.244 293.102 C 312.858 293.242,312.790 293.136,313.021 292.752 C 313.303 292.285,313.250 292.284,312.681 292.745 C 312.311 293.045,312.107 293.450,312.228 293.645 C 312.349 293.840,312.267 294.000,312.047 294.000 C 311.827 294.000,311.536 293.820,311.400 293.600 C 311.264 293.380,310.938 293.203,310.676 293.206 C 310.377 293.210,310.349 293.321,310.600 293.506 C 311.138 293.901,311.293 294.800,310.824 294.800 C 310.617 294.800,310.336 294.620,310.200 294.400 C 310.064 294.180,309.738 294.003,309.476 294.006 C 309.177 294.010,309.149 294.121,309.400 294.306 C 310.079 294.805,310.096 295.723,309.421 295.463 C 309.085 295.334,308.852 295.425,308.905 295.664 C 308.957 295.904,308.750 296.191,308.444 296.302 C 308.132 296.416,307.999 296.325,308.142 296.094 C 308.281 295.868,308.122 295.579,307.788 295.451 C 307.294 295.261,307.260 295.364,307.605 296.009 C 308.080 296.897,307.641 297.060,306.821 296.300 C 306.385 295.895,306.344 295.907,306.604 296.363 C 306.850 296.794,306.724 296.873,306.069 296.702 C 305.311 296.504,305.264 296.572,305.653 297.300 C 306.022 297.989,305.989 298.082,305.451 297.875 C 305.087 297.735,304.851 297.817,304.905 298.064 C 304.957 298.304,304.750 298.591,304.444 298.702 C 304.072 298.837,303.993 298.735,304.206 298.390 C 304.416 298.051,304.365 297.975,304.055 298.166 C 303.798 298.325,303.709 298.653,303.859 298.896 C 304.036 299.182,303.891 299.244,303.445 299.073 C 302.982 298.895,302.852 298.960,303.045 299.273 C 303.238 299.585,303.107 299.650,302.645 299.473 C 302.182 299.295,302.052 299.360,302.245 299.673 C 302.438 299.985,302.307 300.050,301.845 299.873 C 301.382 299.695,301.252 299.760,301.445 300.073 C 301.638 300.385,301.507 300.450,301.045 300.273 C 300.667 300.128,300.450 300.157,300.562 300.338 C 300.673 300.519,300.241 300.667,299.600 300.667 C 298.935 300.667,298.540 300.497,298.679 300.272 C 298.820 300.045,298.718 300.003,298.442 300.174 C 298.071 300.403,298.080 300.618,298.481 301.111 C 298.927 301.659,298.898 301.712,298.279 301.479 C 297.846 301.317,297.656 301.367,297.803 301.605 C 298.106 302.096,297.914 302.099,296.667 301.626 C 295.476 301.172,295.027 301.504,295.703 302.338 C 296.121 302.853,296.086 302.907,295.479 302.679 C 295.046 302.517,294.856 302.567,295.003 302.805 C 295.427 303.490,294.713 303.233,294.159 302.500 C 293.677 301.862,293.645 301.883,293.799 302.737 C 293.928 303.452,293.823 303.618,293.351 303.437 C 293.012 303.307,292.649 303.200,292.544 303.200 C 292.439 303.200,292.481 302.992,292.638 302.738 C 292.819 302.445,292.747 302.385,292.442 302.574 C 292.074 302.802,292.071 303.003,292.430 303.436 C 292.983 304.103,292.649 304.161,291.574 303.586 C 291.148 303.358,290.800 303.262,290.800 303.372 C 290.800 306.296,305.248 299.671,314.907 292.319 C 326.877 283.207,342.710 261.575,340.206 257.753 C 339.468 256.627,339.234 256.550,339.370 257.478 M325.200 282.514 C 325.200 282.576,324.165 283.611,322.900 284.814 L 320.600 287.000 322.786 284.700 C 324.818 282.563,325.200 282.217,325.200 282.514 M81.800 285.200 C 82.883 286.300,83.680 287.200,83.570 287.200 C 83.460 287.200,82.483 286.300,81.400 285.200 C 80.317 284.100,79.520 283.200,79.630 283.200 C 79.740 283.200,80.717 284.100,81.800 285.200 M288.670 303.863 C 288.525 304.008,288.630 304.402,288.903 304.738 C 289.322 305.254,289.285 305.307,288.667 305.075 C 288.264 304.924,287.849 304.800,287.744 304.800 C 287.639 304.800,287.664 304.620,287.800 304.400 C 287.936 304.180,287.857 304.000,287.624 304.000 C 287.391 304.000,287.200 304.191,287.200 304.424 C 287.200 304.657,286.992 304.719,286.738 304.562 C 286.452 304.385,286.385 304.452,286.562 304.738 C 286.721 304.996,286.616 305.205,286.324 305.212 C 285.998 305.220,286.064 305.378,286.496 305.630 C 286.976 305.910,287.695 305.884,288.823 305.546 C 290.340 305.091,290.395 305.026,289.615 304.608 C 289.153 304.361,288.901 304.033,289.054 303.879 C 289.208 303.726,289.243 303.600,289.133 303.600 C 289.023 303.600,288.815 303.718,288.670 303.863 M284.890 304.870 C 284.529 305.231,284.532 305.477,284.902 305.923 C 285.314 306.419,285.181 306.465,283.992 306.235 C 282.876 306.019,282.742 306.054,283.315 306.411 C 283.730 306.669,284.559 306.741,285.287 306.581 C 286.508 306.313,286.519 306.292,285.668 305.836 C 284.983 305.470,284.898 305.262,285.276 304.884 C 285.542 304.618,285.670 304.400,285.560 304.400 C 285.450 304.400,285.148 304.612,284.890 304.870 M277.953 306.100 C 277.927 306.375,277.934 306.758,277.970 306.951 C 278.005 307.144,277.621 307.198,277.117 307.071 C 276.234 306.848,276.229 306.861,276.976 307.420 C 277.404 307.739,278.124 307.979,278.576 307.954 C 279.205 307.918,279.242 307.865,278.731 307.730 C 278.267 307.608,278.116 307.253,278.239 306.577 C 278.336 306.039,278.322 305.600,278.208 305.600 C 278.094 305.600,277.979 305.825,277.953 306.100 M279.953 305.900 C 279.927 306.065,279.934 306.357,279.969 306.549 C 280.004 306.741,279.730 306.782,279.360 306.640 C 278.795 306.423,278.768 306.480,279.192 306.991 C 279.470 307.326,280.049 307.600,280.478 307.600 C 281.188 307.600,281.201 307.544,280.625 306.968 C 280.277 306.620,280.095 306.170,280.220 305.968 C 280.345 305.765,280.347 305.600,280.224 305.600 C 280.101 305.600,279.979 305.735,279.953 305.900 M281.804 306.006 C 282.047 306.399,281.945 306.464,281.409 306.259 C 280.799 306.025,280.765 306.076,281.192 306.591 C 281.470 306.926,282.081 307.179,282.549 307.154 C 283.232 307.116,283.261 307.071,282.695 306.923 C 282.307 306.822,282.085 306.586,282.202 306.397 C 282.318 306.209,282.202 305.925,281.945 305.766 C 281.631 305.572,281.584 305.651,281.804 306.006 M227.434 307.677 C 227.088 308.884,227.429 309.753,228.089 309.345 C 228.339 309.191,228.409 309.261,228.255 309.511 C 228.108 309.749,228.170 310.058,228.393 310.196 C 228.617 310.334,228.800 310.637,228.800 310.868 C 228.800 311.099,228.425 310.864,227.967 310.344 C 227.470 309.781,227.212 309.656,227.328 310.033 C 227.438 310.388,227.293 310.667,227.000 310.667 C 226.712 310.667,226.561 310.445,226.665 310.174 C 226.769 309.903,226.634 309.545,226.365 309.379 C 226.070 309.196,225.979 309.243,226.136 309.496 C 226.279 309.727,226.112 310.025,225.765 310.158 C 224.860 310.505,224.799 310.477,224.806 309.700 C 224.811 309.145,224.885 309.114,225.162 309.553 C 225.437 309.987,225.571 309.921,225.785 309.247 C 225.944 308.745,226.253 308.498,226.529 308.653 C 226.848 308.832,226.871 308.782,226.600 308.499 C 226.033 307.905,219.200 307.460,219.200 308.017 C 219.200 308.253,219.368 308.344,219.572 308.217 C 220.034 307.932,220.302 308.344,220.553 309.728 C 220.660 310.318,220.590 310.800,220.397 310.800 C 219.874 310.800,219.535 310.089,219.985 309.934 C 220.236 309.848,220.235 309.588,219.980 309.200 C 219.638 308.681,219.505 308.705,218.992 309.376 C 218.528 309.985,218.508 310.221,218.900 310.470 C 219.300 310.724,219.300 310.789,218.900 310.794 C 218.234 310.802,218.444 311.720,219.200 312.108 C 219.569 312.298,219.415 312.340,218.800 312.218 C 218.250 312.109,216.810 312.150,215.600 312.310 L 213.400 312.600 216.400 312.828 L 219.400 313.056 216.300 313.128 C 214.548 313.169,213.200 313.374,213.200 313.600 C 213.200 313.850,215.191 313.976,218.500 313.937 C 222.312 313.892,223.239 313.797,221.800 313.600 C 220.700 313.449,220.250 313.285,220.800 313.235 C 221.727 313.150,221.742 313.119,221.000 312.800 C 219.647 312.219,221.223 312.355,223.364 313.004 C 224.444 313.332,226.514 313.574,227.964 313.543 C 230.332 313.492,230.438 313.457,229.000 313.200 C 228.120 313.042,227.760 312.885,228.200 312.851 C 228.879 312.797,228.909 312.723,228.400 312.359 C 227.934 312.026,228.023 311.989,228.800 312.192 C 229.350 312.336,230.430 312.618,231.200 312.817 C 231.970 313.017,233.590 313.162,234.800 313.138 C 236.791 313.099,236.867 313.067,235.600 312.800 C 234.830 312.638,234.470 312.479,234.800 312.447 C 235.333 312.394,235.333 312.345,234.800 312.000 C 233.930 311.438,234.756 311.524,236.600 312.188 C 237.480 312.505,239.010 312.751,240.000 312.735 C 241.633 312.708,241.689 312.677,240.600 312.400 C 239.940 312.232,239.670 312.067,240.000 312.033 C 240.389 311.993,240.249 311.778,239.605 311.421 C 239.058 311.118,238.440 310.975,238.232 311.104 C 238.023 311.233,238.201 311.474,238.627 311.641 C 239.354 311.926,239.349 311.945,238.543 311.972 C 238.071 311.987,237.582 311.730,237.455 311.400 C 237.329 311.070,237.029 310.800,236.789 310.800 C 236.549 310.800,236.464 310.980,236.600 311.200 C 236.736 311.420,236.567 311.600,236.224 311.600 C 235.881 311.600,235.600 311.324,235.600 310.986 C 235.600 310.464,235.465 310.449,234.700 310.884 C 234.205 311.166,233.620 311.421,233.400 311.452 C 231.979 311.650,231.923 311.726,233.000 312.000 C 234.170 312.298,234.161 312.307,232.633 312.353 C 231.772 312.379,231.185 312.282,231.330 312.137 C 231.475 311.992,231.389 311.628,231.140 311.327 C 230.890 311.027,230.802 310.665,230.943 310.524 C 231.084 310.382,231.200 310.477,231.200 310.733 C 231.200 310.990,231.440 311.200,231.733 311.200 C 232.027 311.200,232.267 310.938,232.267 310.618 C 232.267 310.297,232.117 310.128,231.933 310.241 C 231.750 310.355,231.600 310.287,231.600 310.090 C 231.600 309.894,231.330 309.733,231.000 309.733 C 230.608 309.733,230.400 310.126,230.400 310.867 C 230.400 311.574,230.188 312.000,229.837 312.000 C 229.471 312.000,229.348 311.720,229.485 311.198 C 229.600 310.757,229.448 310.082,229.147 309.698 C 228.641 309.053,228.658 309.045,229.375 309.600 C 230.078 310.144,230.126 310.136,229.892 309.513 C 229.751 309.135,229.807 308.719,230.017 308.589 C 230.678 308.181,230.434 307.302,229.600 307.084 C 229.007 306.929,228.800 307.072,228.800 307.637 C 228.800 308.702,228.089 308.594,227.900 307.500 C 227.752 306.645,227.729 306.654,227.434 307.677 M273.153 307.100 C 273.127 307.265,273.134 307.558,273.170 307.751 C 273.205 307.944,272.821 307.998,272.317 307.871 C 271.434 307.648,271.429 307.661,272.176 308.220 C 272.604 308.539,273.414 308.782,273.976 308.760 C 274.903 308.724,274.920 308.696,274.157 308.460 C 273.651 308.304,273.358 307.921,273.422 307.500 C 273.481 307.115,273.455 306.800,273.365 306.800 C 273.274 306.800,273.179 306.935,273.153 307.100 M274.212 307.180 C 273.903 307.681,275.304 308.411,276.474 308.358 C 277.163 308.327,277.010 308.195,275.880 307.844 C 275.044 307.585,274.489 307.244,274.647 307.086 C 274.804 306.929,274.824 306.800,274.690 306.800 C 274.557 306.800,274.342 306.971,274.212 307.180 M269.039 307.937 C 268.709 308.470,270.052 309.210,271.274 309.168 C 272.092 309.141,272.060 309.087,271.000 308.708 C 270.340 308.473,269.688 308.108,269.550 307.897 C 269.395 307.661,269.200 307.676,269.039 307.937 M266.239 308.337 C 265.887 308.906,267.282 309.609,268.674 309.564 C 269.751 309.529,269.739 309.510,268.401 309.127 C 267.631 308.906,266.888 308.543,266.751 308.320 C 266.583 308.049,266.413 308.055,266.239 308.337 M230.651 308.717 C 230.544 308.891,230.803 309.060,231.228 309.092 C 231.652 309.124,232.000 308.981,232.000 308.775 C 232.000 308.320,230.925 308.273,230.651 308.717 M263.412 308.780 C 263.083 309.313,264.530 310.008,265.874 309.961 C 266.811 309.928,266.710 309.844,265.269 309.458 C 264.317 309.204,263.672 308.861,263.836 308.698 C 263.999 308.534,264.024 308.400,263.890 308.400 C 263.757 308.400,263.542 308.571,263.412 308.780 M223.452 310.100 C 223.319 310.595,223.208 311.315,223.205 311.700 C 223.202 312.085,222.928 312.400,222.595 312.400 C 222.061 312.400,222.057 312.238,222.561 311.033 C 222.875 310.281,223.027 309.561,222.899 309.433 C 222.771 309.305,222.898 309.200,223.180 309.200 C 223.517 309.200,223.611 309.509,223.452 310.100 M248.281 309.867 C 248.406 310.192,248.196 310.402,247.743 310.406 C 247.117 310.411,247.094 310.473,247.600 310.800 C 248.085 311.114,248.028 311.189,247.300 311.194 C 246.754 311.198,246.400 310.958,246.400 310.584 C 246.400 310.078,246.301 310.060,245.841 310.484 C 245.049 311.214,246.494 311.980,248.600 311.946 C 249.679 311.929,249.938 311.836,249.394 311.660 C 248.577 311.397,248.352 310.715,248.900 310.167 C 249.369 309.698,249.254 309.333,248.638 309.333 C 248.329 309.333,248.168 309.573,248.281 309.867 M251.678 309.815 L 250.757 310.295 251.661 310.532 C 252.158 310.662,252.648 310.685,252.749 310.584 C 252.850 310.483,252.678 310.397,252.367 310.394 C 251.893 310.389,251.897 310.327,252.388 310.016 C 253.299 309.440,252.715 309.274,251.678 309.815 M253.503 309.694 C 253.154 310.580,254.277 311.217,256.074 311.152 C 257.380 311.105,257.374 311.098,255.719 310.699 C 254.718 310.458,253.985 310.033,253.907 309.647 C 253.792 309.075,253.745 309.080,253.503 309.694 M257.012 309.580 C 256.683 310.113,258.130 310.808,259.474 310.761 C 260.411 310.728,260.310 310.644,258.869 310.258 C 257.917 310.004,257.272 309.661,257.436 309.498 C 257.599 309.334,257.624 309.200,257.490 309.200 C 257.357 309.200,257.142 309.371,257.012 309.580 M260.400 309.783 C 260.950 310.107,261.940 310.363,262.600 310.351 C 263.930 310.329,263.374 310.082,260.600 309.462 L 259.400 309.193 260.400 309.783 M241.600 310.400 C 241.270 310.613,241.180 310.793,241.400 310.800 C 241.620 310.807,241.536 310.979,241.214 311.183 C 240.373 311.715,242.365 312.415,244.526 312.347 L 246.200 312.295 244.069 311.886 C 242.289 311.545,241.971 311.356,242.132 310.739 C 242.238 310.332,242.297 310.003,242.263 310.006 C 242.228 310.009,241.930 310.187,241.600 310.400 M243.678 310.587 L 242.757 311.095 243.661 311.332 C 244.158 311.462,244.648 311.485,244.749 311.384 C 244.850 311.283,244.689 311.200,244.390 311.200 C 244.039 311.200,244.121 310.993,244.624 310.613 C 245.566 309.900,244.953 309.883,243.678 310.587 M249.678 310.352 C 248.929 310.815,250.932 311.609,252.719 311.557 L 254.200 311.514 252.400 311.115 C 251.410 310.895,250.505 310.564,250.389 310.379 C 250.274 310.194,249.954 310.182,249.678 310.352 M226.353 311.162 C 226.785 311.436,226.713 311.574,226.023 311.793 C 225.537 311.947,225.033 311.967,224.903 311.837 C 224.773 311.706,225.012 311.597,225.433 311.594 C 226.075 311.589,226.102 311.524,225.600 311.200 C 225.270 310.987,225.180 310.812,225.400 310.812 C 225.620 310.812,226.049 310.970,226.353 311.162 M226.700 312.676 C 226.315 312.776,225.685 312.776,225.300 312.676 C 224.915 312.575,225.230 312.493,226.000 312.493 C 226.770 312.493,227.085 312.575,226.700 312.676 M188.500 313.089 C 187.785 313.178,186.615 313.178,185.900 313.089 C 185.185 313.001,185.770 312.928,187.200 312.928 C 188.630 312.928,189.215 313.001,188.500 313.089 " stroke="none" fill="#000000" fill-rule="evenodd"></path></g></svg>