<?xml version="1.0" standalone="no"?>
<!DOCTYPE svg PUBLIC "-//W3C//DTD SVG 20010904//EN"
 "http://www.w3.org/TR/2001/REC-SVG-20010904/DTD/svg10.dtd">
<svg version="1.0" xmlns="http://www.w3.org/2000/svg"
 width="1000.000000pt" height="1000.000000pt" viewBox="0 0 1000.000000 1000.000000"
 preserveAspectRatio="xMidYMid meet">
<g transform="translate(0.000000,1000.000000) scale(0.100000,-0.100000)"
fill="#000000" stroke="none">
<path d="M2798 9402 c-1 -4 -43 -22 -93 -41 -49 -18 -166 -63 -260 -98 -456
-173 -458 -174 -551 -276 -106 -118 -163 -271 -171 -462 -3 -66 2 -748 11
-1515 9 -767 20 -1908 26 -2535 11 -1218 18 -1452 51 -1609 39 -189 105 -346
182 -431 24 -28 126 -106 226 -175 182 -125 1389 -961 1491 -1033 30 -21 123
-86 205 -143 83 -58 187 -131 233 -161 56 -38 81 -61 77 -71 -9 -25 35 -82 84
-106 53 -27 171 -66 284 -95 305 -79 691 -58 1005 54 129 47 150 61 185 128
28 53 43 67 166 152 145 100 142 98 476 333 121 85 515 360 875 609 372 258
672 473 695 498 88 96 156 252 195 447 33 164 39 396 55 2078 9 866 21 2033
27 2593 9 794 8 1033 -1 1084 -36 195 -130 360 -253 442 -31 21 -123 64 -205
96 -224 86 -451 174 -520 201 -34 13 -66 24 -72 24 -6 0 -11 5 -11 10 0 12
-4406 14 -4412 2z m2230 -3567 c1 -666 -1 -1012 -8 -1019 -6 -6 -13 -6 -19 0
-11 11 -27 2006 -16 2023 4 7 14 11 23 9 16 -3 17 -82 20 -1013z"/>
</g>
</svg>
