<?xml version="1.0" encoding="iso-8859-1"?>
<!DOCTYPE svg PUBLIC "-//W3C//DTD SVG 1.1//EN" "http://www.w3.org/Graphics/SVG/1.1/DTD/svg11.dtd">
<svg xmlns="http://www.w3.org/2000/svg" xmlns:xlink="http://www.w3.org/1999/xlink" version="1.1" x="0px" y="0px" viewBox="0 0 96 96" enable-background="new 0 0 96 96" xml:space="preserve"><g><path d="M14.284,11.784c-1.379,0-2.5,1.121-2.5,2.5c0,1.378,1.121,2.5,2.5,2.5c35.804,0,64.932,29.128,64.932,64.932   c0,1.379,1.121,2.5,2.5,2.5s2.5-1.121,2.5-2.5C84.216,43.155,52.845,11.784,14.284,11.784z"/><path d="M14.284,36.615c-1.379,0-2.5,1.122-2.5,2.5c0,1.379,1.121,2.5,2.5,2.5c22.111,0,40.1,17.989,40.1,40.101   c0,1.379,1.121,2.5,2.5,2.5s2.5-1.121,2.5-2.5C59.384,56.848,39.152,36.615,14.284,36.615z"/><path d="M14.284,60.803c-1.379,0-2.5,1.121-2.5,2.5c0,1.378,1.121,2.5,2.5,2.5c8.775,0,15.914,7.139,15.914,15.913   c0,1.379,1.121,2.5,2.5,2.5s2.5-1.121,2.5-2.5C35.198,70.185,25.816,60.803,14.284,60.803z"/></g></svg>
