<svg xmlns="http://www.w3.org/2000/svg" xmlns:xlink="http://www.w3.org/1999/xlink" version="1.1" x="0px" y="0px" viewBox="0 0 100 100" style="enable-background:new 0 0 100 100;" xml:space="preserve"><path d="M72.5,36.25c-7.582,0-13.75,6.168-13.75,13.75s6.168,13.75,13.75,13.75S86.25,57.582,86.25,50S80.082,36.25,72.5,36.25z   M72.5,61.25c-6.203,0-11.25-5.047-11.25-11.25s5.047-11.25,11.25-11.25S83.75,43.797,83.75,50S78.703,61.25,72.5,61.25z"/><path d="M46.616,41.616L32.5,55.732l-6.616-6.616c-0.488-0.488-1.279-0.488-1.768,0s-0.488,1.279,0,1.768l7.5,7.5  c0.244,0.244,0.564,0.366,0.884,0.366s0.64-0.122,0.884-0.366l15-15c0.488-0.488,0.488-1.279,0-1.768S47.104,41.128,46.616,41.616z"/><path d="M72.5,27.5h-45C15.093,27.5,5,37.594,5,50s10.093,22.5,22.5,22.5h45C84.907,72.5,95,62.406,95,50S84.907,27.5,72.5,27.5z   M72.5,67.5h-45C17.851,67.5,10,59.649,10,50s7.851-17.5,17.5-17.5h45C82.149,32.5,90,40.351,90,50S82.149,67.5,72.5,67.5z"/></svg>