<?xml version="1.0" standalone="no"?>
<!DOCTYPE svg PUBLIC "-//W3C//DTD SVG 20010904//EN"
 "http://www.w3.org/TR/2001/REC-SVG-20010904/DTD/svg10.dtd">
<svg version="1.0" xmlns="http://www.w3.org/2000/svg"
 width="500.000000pt" height="89.000000pt" viewBox="0 0 500.000000 89.000000"
 preserveAspectRatio="xMidYMid meet">
<g transform="translate(0.000000,89.000000) scale(0.100000,-0.100000)"
fill="#000000" stroke="none">
<path d="M329 876 c-126 -36 -230 -125 -288 -245 -35 -73 -36 -80 -36 -186 0
-106 1 -113 36 -186 73 -152 210 -246 373 -256 131 -9 230 22 344 108 68 52
139 139 265 324 56 83 129 177 163 211 113 113 250 157 380 119 127 -36 217
-121 375 -355 116 -173 241 -308 325 -353 112 -59 259 -73 376 -37 143 44 252
146 418 389 159 235 234 309 361 351 136 47 278 4 399 -119 36 -37 117 -143
180 -236 135 -199 224 -294 325 -346 93 -49 159 -63 259 -56 92 6 147 24 226
77 55 36 154 153 147 173 -5 17 -100 53 -104 40 -11 -32 -69 -97 -111 -124
-153 -97 -332 -69 -476 75 -34 34 -104 124 -156 201 -172 253 -245 332 -364
392 -142 72 -310 70 -450 -5 -85 -45 -210 -180 -326 -352 -154 -230 -246 -318
-369 -354 -69 -20 -133 -20 -202 0 -123 36 -210 120 -369 354 -117 173 -242
308 -326 353 -106 56 -248 72 -355 41 -157 -46 -259 -139 -429 -389 -197 -291
-297 -369 -470 -370 -71 0 -94 4 -141 26 -102 48 -176 147 -194 257 l-7 42
364 0 363 1 28 40 c28 41 28 41 13 94 -20 66 -85 165 -140 210 -23 19 -73 49
-110 66 -58 27 -82 32 -160 35 -56 2 -109 -2 -137 -10z m254 -129 c70 -32 112
-70 147 -131 17 -28 30 -54 30 -58 0 -5 -142 -8 -315 -8 -173 0 -315 2 -315 5
0 19 47 92 80 125 98 98 248 125 373 67z"/>
<path d="M2415 881 c-109 -27 -204 -126 -205 -214 -1 -95 72 -155 281 -230 53
-19 116 -45 140 -57 50 -25 109 -78 109 -97 0 -24 17 -14 54 32 35 42 36 46
22 68 -32 48 -119 97 -285 159 -166 62 -201 84 -201 125 0 64 69 107 170 108
86 0 138 -26 165 -83 20 -41 21 -41 73 -42 50 0 52 1 52 27 0 75 -76 158 -178
195 -48 18 -143 22 -197 9z"/>
<path d="M4448 880 c-117 -30 -242 -130 -293 -234 -39 -80 -43 -125 -14 -169
l24 -37 418 0 417 0 0 39 c0 64 -37 165 -83 228 -52 69 -95 104 -183 145 -56
26 -80 31 -158 34 -50 2 -108 -1 -128 -6z m243 -132 c72 -33 114 -70 149 -132
17 -28 30 -54 30 -58 0 -5 -142 -8 -315 -8 -173 0 -315 2 -315 5 0 19 47 92
80 125 98 98 247 125 371 68z"/>
<path d="M1077 437 l-47 -73 14 -47 c42 -141 149 -248 296 -297 54 -19 80 -21
158 -17 81 4 102 9 165 40 40 20 89 51 110 70 l37 35 0 -54 0 -54 55 0 55 0 0
161 0 161 -52 74 c-28 41 -54 74 -57 74 -3 0 -6 -33 -7 -73 -1 -129 -73 -239
-193 -296 -46 -21 -70 -26 -136 -26 -71 0 -89 4 -147 33 -116 57 -178 152
-186 285 -2 42 -7 77 -11 77 -3 -1 -27 -34 -54 -73z"/>
<path d="M3115 409 c-20 -32 -25 -49 -21 -73 18 -92 113 -220 204 -273 106
-62 247 -80 361 -44 66 20 143 66 181 106 l23 25 -24 26 c-44 47 -56 49 -96
13 -62 -54 -117 -73 -213 -74 -73 0 -93 4 -142 28 -63 31 -149 117 -166 167
l-11 30 385 0 c211 0 384 2 384 5 0 3 -15 28 -32 55 l-33 50 -386 0 -386 0
-28 -41z"/>
</g>
</svg>
