<svg xmlns="http://www.w3.org/2000/svg" xmlns:xlink="http://www.w3.org/1999/xlink" xml:space="preserve" version="1.1" style="shape-rendering:geometricPrecision;text-rendering:geometricPrecision;image-rendering:optimizeQuality;" viewBox="0 0 261 300" x="0px" y="0px" fill-rule="evenodd" clip-rule="evenodd"><defs><style type="text/css">

    .fil0 {fill:black}

  </style></defs><g><path class="fil0" d="M145 13l0 131c0,17 -29,17 -29,0l0 -131c0,-17 29,-17 29,0z"/><path class="fil0" d="M232 154c0,-43 -25,-78 -63,-94 -15,-6 -5,-34 11,-27 49,21 81,66 81,121 0,72 -58,130 -131,130 -72,0 -131,-59 -130,-131 0,-55 33,-100 81,-120 17,-7 27,21 11,27 -37,16 -63,51 -63,94 0,56 46,101 102,101 55,0 101,-45 101,-101z"/></g></svg>
