<svg xmlns="http://www.w3.org/2000/svg" xmlns:xlink="http://www.w3.org/1999/xlink" version="1.1" x="0px" y="0px" viewBox="0 0 100 100" enable-background="new 0 0 100 100" xml:space="preserve"><g><rect x="13.454" y="33.33" fill="none" stroke="#000000" stroke-miterlimit="10" width="16.357" height="29.163"/><path d="M33.814,31.424c0,1.647-1.085,2.983-2.423,2.983H11.873c-1.338,0-2.423-1.336-2.423-2.983v-3.362   c0-1.647,1.085-2.982,2.423-2.982h19.519c1.338,0,2.423,1.335,2.423,2.982V31.424z"/><path d="M26.545,51.722c0,3.731-0.438,6.757-0.978,6.757h-7.872c-0.541,0-0.978-3.025-0.978-6.757v-7.619   c0-3.732,0.437-6.758,0.978-6.758h7.872c0.54,0,0.978,3.026,0.978,6.758V51.722z"/><path d="M33.814,68.356c0,1.647-1.085,2.982-2.423,2.982H11.873c-1.338,0-2.423-1.335-2.423-2.982v-3.362   c0-1.647,1.085-2.982,2.423-2.982h19.519c1.338,0,2.423,1.335,2.423,2.982V68.356z"/></g><g><rect x="42.329" y="33.33" fill="none" stroke="#000000" stroke-miterlimit="10" width="16.357" height="29.163"/><path d="M62.689,31.424c0,1.647-1.085,2.983-2.423,2.983H40.748c-1.338,0-2.423-1.336-2.423-2.983v-3.362   c0-1.647,1.085-2.982,2.423-2.982h19.519c1.338,0,2.423,1.335,2.423,2.982V31.424z"/><path d="M55.42,51.722c0,3.731-0.438,6.757-0.977,6.757h-7.872c-0.541,0-0.978-3.025-0.978-6.757v-7.619   c0-3.732,0.437-6.758,0.978-6.758h7.872c0.539,0,0.977,3.026,0.977,6.758V51.722z"/><path d="M62.689,68.356c0,1.647-1.085,2.982-2.423,2.982H40.748c-1.338,0-2.423-1.335-2.423-2.982v-3.362   c0-1.647,1.085-2.982,2.423-2.982h19.519c1.338,0,2.423,1.335,2.423,2.982V68.356z"/></g><g><rect x="70.578" y="33.33" fill="none" stroke="#000000" stroke-miterlimit="10" width="16.357" height="29.163"/><path d="M90.939,31.424c0,1.647-1.085,2.983-2.423,2.983H68.998c-1.338,0-2.424-1.336-2.424-2.983v-3.362   c0-1.647,1.086-2.982,2.424-2.982h19.519c1.338,0,2.423,1.335,2.423,2.982V31.424z"/><path d="M83.67,51.722c0,3.731-0.438,6.757-0.977,6.757h-7.872c-0.54,0-0.978-3.025-0.978-6.757v-7.619   c0-3.732,0.438-6.758,0.978-6.758h7.872c0.539,0,0.977,3.026,0.977,6.758V51.722z"/><path d="M90.939,68.356c0,1.647-1.085,2.982-2.423,2.982H68.998c-1.338,0-2.424-1.335-2.424-2.982v-3.362   c0-1.647,1.086-2.982,2.424-2.982h19.519c1.338,0,2.423,1.335,2.423,2.982V68.356z"/></g></svg>